<?xml version="1.0" encoding="UTF-8" standalone="no"?>
<!-- Created with Inkscape (http://www.inkscape.org/) -->

<svg
   xmlns:dc="http://purl.org/dc/elements/1.1/"
   xmlns:cc="http://creativecommons.org/ns#"
   xmlns:rdf="http://www.w3.org/1999/02/22-rdf-syntax-ns#"
   xmlns:svg="http://www.w3.org/2000/svg"
   xmlns="http://www.w3.org/2000/svg"
   xmlns:sodipodi="http://sodipodi.sourceforge.net/DTD/sodipodi-0.dtd"
   xmlns:inkscape="http://www.inkscape.org/namespaces/inkscape"
   version="1.1"
   id="svg2"
   width="17.333332"
   height="248"
   viewBox="0 0 17.333332 248"
   sodipodi:docname="line.svg"
   inkscape:version="0.92.1 r15371">
  <metadata
     id="metadata8">
    <rdf:RDF>
      <cc:Work
         rdf:about="">
        <dc:format>image/svg+xml</dc:format>
        <dc:type
           rdf:resource="http://purl.org/dc/dcmitype/StillImage" />
        <dc:title></dc:title>
      </cc:Work>
    </rdf:RDF>
  </metadata>
  <defs
     id="defs6" />
  <sodipodi:namedview
     pagecolor="#ffffff"
     bordercolor="#666666"
     borderopacity="1"
     objecttolerance="10"
     gridtolerance="10"
     guidetolerance="10"
     inkscape:pageopacity="0"
     inkscape:pageshadow="2"
     inkscape:window-width="1366"
     inkscape:window-height="705"
     id="namedview4"
     showgrid="false"
     inkscape:zoom="3.8064516"
     inkscape:cx="92.716187"
     inkscape:cy="57.713924"
     inkscape:window-x="-8"
     inkscape:window-y="-8"
     inkscape:window-maximized="1"
     inkscape:current-layer="svg2" />
  <g
     id="g6243"
     transform="translate(-0.01694917)">
    <path
       style="fill:#fefefe;stroke-width:1.33333325"
       d="M 12.177158,222.33333 C 10.606747,198.63479 8.952985,177.09928 3.0900618,104 0.12185292,66.992192 -0.09327405,14.160256 2.7018729,8.6666667 4.2318426,5.6596599 5.5061705,4.7758273 7.8351529,5.1063904 9.8160372,5.3875464 11.633644,4.5461281 12.875552,2.7730571 13.94383,1.2478757 15.383853,0 16.075604,0 c 0.779065,0 1.257728,47.191529 1.257728,124 0,100.64632 -0.325383,124 -1.727672,124 -1.295937,0 -2.152698,-6.41393 -3.428502,-25.66667 z"
       id="path6427"
       inkscape:connector-curvature="0" />
    <path
       style="fill:#fdfdfd;stroke-width:1.33333325"
       d="M 12.204869,203 C 10.54161,178.25 8.6419775,151.7 7.9834625,144 5.7273692,117.61955 3.7817112,67.478843 4.6491043,58.071696 5.5727729,48.054224 7.5871559,40 9.1688841,40 10.662567,40 13.351578,31.573447 14.233119,24.130205 14.671482,20.42892 15.54836,17.720872 16.181737,18.11232 17.622717,19.002896 17.721748,248 16.281153,248 c -0.578698,0 -2.413026,-20.25 -4.076284,-45 z"
       id="path6425"
       inkscape:connector-curvature="0" />
    <path
       style="fill:#fcfcfc;stroke-width:1.33333325"
       d="M 14.666666,238.64085 C 14.666666,229.90767 13.336732,208.78493 9.0856482,150 8.1310786,136.8 7.3463017,111 7.3416998,92.666667 l -0.00837,-33.333334 3.6666662,-6.531918 c 2.016667,-3.592556 3.666667,-7.907146 3.666667,-9.587978 0,-1.680832 0.599999,-3.426878 1.333333,-3.880104 0.884566,-0.546692 1.333333,34.430599 1.333333,103.921307 0,68.94135 -0.45576,104.74536 -1.333333,104.74536 -0.762255,0 -1.333333,-4.0086 -1.333333,-9.35915 z"
       id="path6423"
       inkscape:connector-curvature="0" />
    <path
       style="fill:#fbfbfb;stroke-width:1.33333325"
       d="M 15.490387,243.66667 C 15.143642,241.28333 14.189632,227.03333 13.370366,212 12.551101,196.96667 11.326425,176.26667 10.648865,166 5.5593128,88.881041 5.662569,71.953183 11.296352,59.850767 c 1.839345,-3.951255 3.350124,-8.5341 3.357288,-10.1841 0.0072,-1.65 0.613025,-3 1.346359,-3 0.877116,0 1.333333,34.444444 1.333333,100.666663 C 17.333332,202.7 17.06052,248 16.727083,248 c -0.333438,0 -0.889951,-1.95 -1.236696,-4.33333 z"
       id="path6421"
       inkscape:connector-curvature="0" />
    <path
       style="fill:#fafafa;stroke-width:1.33333325"
       d="M 15.734236,241.33333 C 15.2214,237.3 14.150118,222.3 13.353608,208 12.557099,193.7 10.986354,167.3 9.8630647,149.33333 8.7397751,131.36667 8.0464739,105.86667 8.3223956,92.666667 8.77511,71.008955 9.1091762,68.151176 11.745368,63.384744 c 1.606714,-2.905057 2.921298,-7.075057 2.921298,-9.266667 0,-2.673761 0.441537,-3.543206 1.342055,-2.642688 0.882428,0.882428 1.224908,34.879343 1,99.266661 -0.18813,53.85854 -0.761649,94.62462 -1.274485,90.59128 z"
       id="path6419"
       inkscape:connector-curvature="0" />
    <path
       style="fill:#f9f9f9;stroke-width:1.33333325"
       d="m 15.502853,239.66667 c -0.390167,-4.58334 -1.356731,-20.03334 -2.147918,-34.33334 -0.791188,-14.3 -2.379823,-41.9 -3.530301,-61.33333 -2.6646482,-45.009993 -2.0692923,-67.883633 1.960264,-75.313588 1.584972,-2.922473 2.881768,-6.972473 2.881768,-9 0,-2.027527 0.599999,-3.686412 1.333333,-3.686412 0.876542,0 1.333333,32.888889 1.333333,96 0,52.8 -0.252244,96 -0.560541,96 -0.308298,0 -0.87977,-3.75 -1.269938,-8.33333 z"
       id="path6417"
       inkscape:connector-curvature="0" />
    <path
       style="fill:#f8f8f8;stroke-width:1.33333325"
       d="M 15.726353,238.66667 C 14.438642,224.97216 11.009965,166.37559 9.1338578,126 7.3202253,86.968916 8.0301902,80.025583 15.882443,60 c 0.96778,-2.468125 1.605788,76.8332 1.134397,141 -0.215964,29.39753 -0.710567,43.83399 -1.290487,37.66667 z"
       id="path6415"
       inkscape:connector-curvature="0" />
    <path
       style="fill:#f7f7f7;stroke-width:1.33333325"
       d="m 15.500132,237 c -0.406588,-6.05 -1.366413,-22.4 -2.132945,-36.33333 -0.766531,-13.93334 -1.997474,-35.53334 -2.735428,-48 C 9.893805,140.2 9.25178,119.09501 9.2050368,105.7667 9.1287354,84.010235 9.4035033,80.892604 11.893357,75.263875 c 1.525319,-3.448238 2.773309,-7.657843 2.773309,-9.354676 0,-1.696835 0.599999,-3.455974 1.333333,-3.909199 0.884042,-0.546368 1.333333,30.652821 1.333333,92.58797 0,51.37662 -0.246139,93.41203 -0.546975,93.41203 -0.300836,0 -0.879637,-4.95 -1.286225,-11 z"
       id="path6413"
       inkscape:connector-curvature="0" />
    <path
       style="fill:#f6f6f6;stroke-width:1.33333325"
       d="m 15.489441,235.66667 c -3.801898,-61.74434 -5.140275,-88.98252 -5.7489176,-117 C 9.06617,87.624329 9.1710014,85.649475 11.848775,78.95064 c 1.54984,-3.877149 2.817891,-8.491739 2.817891,-10.254644 0,-1.762907 0.599999,-3.576104 1.333333,-4.029329 0.883972,-0.546326 1.333333,30.208376 1.333333,91.254643 0,50.64328 -0.244005,92.07869 -0.542233,92.07869 -0.29823,0 -0.883975,-5.55 -1.301658,-12.33333 z"
       id="path6411"
       inkscape:connector-curvature="0" />
    <path
       style="fill:#f5f5f5;stroke-width:1.33333325"
       d="m 15.482927,234.33333 c -0.425528,-7.51666 -1.797409,-30.46666 -3.048628,-51 C 11.183082,162.8 10.123503,131.9 10.079679,114.66667 c -0.06987,-27.474058 0.206702,-31.82601 2.245439,-35.333337 1.278816,-2.2 2.328816,-5.65 2.333333,-7.666666 C 14.66297,69.65 15.266665,68 15.999999,68 c 0.87572,0 1.333333,30.888889 1.333333,90 0,49.5 -0.242261,90 -0.53836,90 -0.296097,0 -0.886519,-6.15 -1.312045,-13.66667 z"
       id="path6409"
       inkscape:connector-curvature="0" />
    <path
       style="fill:#f4f4f4;stroke-width:1.33333325"
       d="m 15.470876,233 c -0.435701,-8.25 -1.791564,-31.5 -3.013026,-51.66667 -1.221462,-20.16666 -2.274168,-49.86666 -2.339346,-66 -0.10329,-25.567254 0.181069,-29.881181 2.214828,-33.60045 1.283334,-2.346916 2.333334,-6.096916 2.333334,-8.333333 0,-2.236418 0.599999,-4.066214 1.333333,-4.066214 0.875621,0 1.333333,30.666667 1.333333,89.333337 C 17.333332,207.8 17.092521,248 16.798197,248 c -0.294324,0 -0.891618,-6.75 -1.327321,-15 z"
       id="path6407"
       inkscape:connector-curvature="0" />
    <path
       style="fill:#f3f3f3;stroke-width:1.33333325"
       d="m 15.41642,231 c -0.468652,-9.35 -1.812674,-32.9 -2.986716,-52.33333 -1.174042,-19.43334 -2.201015,-47.33334 -2.282163,-62 -0.124878,-22.570446 0.210878,-27.541262 2.185791,-32.360318 1.283334,-3.131507 2.333334,-7.146097 2.333334,-8.921311 0,-1.775214 0.599999,-3.598482 1.333333,-4.051708 0.883788,-0.54621 1.333333,29.097267 1.333333,87.921307 0,48.80995 -0.239584,88.74536 -0.532409,88.74536 -0.292824,0 -0.915851,-7.65 -1.384503,-17 z"
       id="path6405"
       inkscape:connector-curvature="0" />
    <path
       style="fill:#f2f2f2;stroke-width:1.33333325"
       d="M 15.432573,231 C 14.972807,221.65 13.646532,197.8 12.485299,178 9.4618959,126.44845 9.4220158,92.830243 12.376365,86.170501 c 1.259666,-2.839557 2.290301,-6.554146 2.290301,-8.254644 0,-1.700496 0.599999,-3.462632 1.333333,-3.915857 0.883709,-0.546163 1.333333,28.65282 1.333333,86.58797 0,48.07662 -0.239584,87.41203 -0.532409,87.41203 -0.292824,0 -0.908582,-7.65 -1.36835,-17 z"
       id="path6403"
       inkscape:connector-curvature="0" />
    <path
       style="fill:#f1f1f1;stroke-width:1.33333325"
       d="M 15.637636,230 C 15.071671,219.73333 14.01349,201.43333 13.286123,189.33333 8.6359021,111.97527 9.0750902,92.546329 15.848004,76 c 0.997989,-2.4381 1.649864,69.4222 1.170213,129 -0.308653,38.33823 -0.47712,41.38887 -1.380581,25 z"
       id="path6401"
       inkscape:connector-curvature="0" />
    <path
       style="fill:#f0f0f0;stroke-width:1.33333325"
       d="m 15.981877,243.66667 c -0.02395,-5.7266 -2.286925,-50.54023 -3.989306,-79 C 11.246852,152.2 10.602988,131.68112 10.561762,119.06915 10.48899,96.806105 11.513498,89.160889 16.065293,78 16.663449,76.533333 17.19346,114.18333 17.243092,161.66667 17.292724,209.15 17.033332,248 16.666665,248 c -0.366666,0 -0.674821,-1.95 -0.684788,-4.33333 z"
       id="path6399"
       inkscape:connector-curvature="0" />
    <path
       style="fill:#efefef;stroke-width:1.33333325"
       d="M 15.427061,228.33333 C 14.959472,217.51667 13.962024,199.36667 13.21051,188 12.458996,176.63333 11.499703,151.43333 11.078749,132 10.410851,101.16654 10.590584,96.009155 12.490022,91.503835 c 1.197154,-2.839558 2.176644,-6.554147 2.176644,-8.254644 0,-1.700496 0.599999,-3.462632 1.333333,-3.915858 0.883546,-0.546062 1.333333,27.763937 1.333333,83.921307 0,46.60995 -0.237624,84.74536 -0.528053,84.74536 -0.290431,0 -0.910628,-8.85 -1.378218,-19.66667 z"
       id="path6397"
       inkscape:connector-curvature="0" />
    <path
       style="fill:#eeeeee;stroke-width:1.33333325"
       d="m 15.412564,227 c -0.477506,-11.55 -1.44861,-29.7 -2.158009,-40.33333 -0.709398,-10.63334 -1.675343,-34.40874 -2.146545,-52.83423 -0.745013,-29.13241 -0.568849,-34.381048 1.350963,-40.250533 1.214231,-3.712299 2.207693,-8.286895 2.207693,-10.16577 0,-1.878876 0.599999,-3.416137 1.333333,-3.416137 0.87478,0 1.333333,28.88889 1.333333,84 0,46.2 -0.236829,84 -0.526287,84 -0.289458,0 -0.916974,-9.45 -1.394481,-21 z"
       id="path6395"
       inkscape:connector-curvature="0" />
    <path
       style="fill:#ededed;stroke-width:1.33333325"
       d="m 15.396035,225.66667 c -0.488311,-12.28334 -1.459516,-30.73334 -2.158235,-41 C 12.539082,174.4 11.60329,151.3 11.158261,133.33333 10.464298,105.31667 10.653652,99.812584 12.488488,94.666667 c 1.176652,-3.3 2.1481,-7.35 2.158774,-9 0.01067,-1.65 0.619403,-3 1.352737,-3 0.874552,0 1.333333,28.444443 1.333333,82.666663 C 17.333332,210.8 17.097204,248 16.808603,248 c -0.288602,0 -0.924256,-10.05 -1.412568,-22.33333 z"
       id="path6393"
       inkscape:connector-curvature="0" />
    <path
       style="fill:#ececec;stroke-width:1.33333325"
       d="M 15.414641,225.66667 C 14.936564,213.38333 13.95896,194.33333 13.24219,183.33333 10.855361,146.7036 10.236425,105.20199 11.979511,98.666667 c 0.880167,-3.3 1.911139,-7.955562 2.291047,-10.345691 2.374155,-14.9366 3.062774,2.360783 3.062774,76.933664 0,45.50995 -0.236128,82.74536 -0.524729,82.74536 -0.288602,0 -0.915884,-10.05 -1.393962,-22.33333 z"
       id="path6391"
       inkscape:connector-curvature="0" />
    <path
       style="fill:#ebebeb;stroke-width:1.33333325"
       d="m 15.585005,225.33333 c -0.594911,-12.83333 -1.632251,-32.1075 -2.3052,-42.8315 -0.672948,-10.724 -1.628557,-32.102 -2.123577,-47.50666 -0.782906,-24.36348 -0.590816,-29.2873 1.476038,-37.835154 1.306841,-5.404676 2.749197,-10.726683 3.205237,-11.826683 1.010637,-2.43773 1.662337,64.611817 1.181626,121.570517 l -0.352464,41.76282 z"
       id="path6389"
       inkscape:connector-curvature="0" />
    <path
       style="fill:#eaeaea;stroke-width:1.33333325"
       d="m 15.589908,224.66667 c -0.592216,-13.2 -1.612612,-32.7 -2.267546,-43.33334 -2.965292,-48.14369 -3.164088,-71.13288 -0.71062,-82.177625 1.281513,-5.76897 2.718126,-11.389038 3.192474,-12.489038 1.036135,-2.402774 1.704185,64.124453 1.215052,121.000003 l -0.352603,41 z"
       id="path6387"
       inkscape:connector-curvature="0" />
    <path
       style="fill:#e9e9e9;stroke-width:1.33333325"
       d="m 15.948477,240.33333 c -0.02833,-4.21666 -0.603094,-19.06666 -1.277239,-33 C 10.512487,121.37964 10.311015,113.7252 11.9817,105.15067 12.890876,100.48447 13.932572,94.716667 14.29658,92.333333 14.66059,89.95 15.492771,88 16.145873,88 c 0.681196,0 1.187459,34.10735 1.187459,80 0,44 -0.3,80 -0.666667,80 -0.366666,0 -0.68985,-3.45 -0.718188,-7.66667 z"
       id="path6385"
       inkscape:connector-curvature="0" />
    <path
       style="fill:#e8e8e8;stroke-width:1.33333325"
       d="m 15.460173,225 c -0.484334,-12.65 -1.490154,-33.5 -2.235152,-46.33333 -2.204815,-37.98008 -2.184172,-71.4114 0.05001,-81.000003 1.067936,-4.583334 2.417935,-8.333334 2.999999,-8.333334 0.582064,0 1.058299,35.699997 1.058299,79.333337 C 17.333332,212.3 17.110009,248 16.837059,248 c -0.272951,0 -0.89255,-10.35 -1.376886,-23 z"
       id="path6383"
       inkscape:connector-curvature="0" />
    <path
       style="fill:#e7e7e7;stroke-width:1.33333325"
       d="M 15.950517,239.66667 C 15.923303,235.08333 15.337044,219.63333 14.647719,205.33333 10.19701,113.00359 10.217517,118.19945 14.212254,95 c 2.402375,-13.951805 3.121078,3.165211 3.121078,74.33333 0,43.26667 -0.3,78.66667 -0.666667,78.66667 -0.366666,0 -0.688933,-3.75 -0.716148,-8.33333 z"
       id="path6381"
       inkscape:connector-curvature="0" />
    <path
       style="fill:#e6e6e6;stroke-width:1.33333325"
       d="M 15.970424,239.66667 C 15.954159,235.08333 15.350221,219.03333 14.628342,204 10.644776,121.04118 10.627935,117.55065 14.112031,96.987643 c 2.55188,-15.061102 3.221301,-0.04324 3.221301,72.266997 0,43.30995 -0.3,78.74536 -0.666667,78.74536 -0.366666,0 -0.679974,-3.75 -0.696241,-8.33333 z"
       id="path6379"
       inkscape:connector-curvature="0" />
    <path
       style="fill:#e5e5e5;stroke-width:1.33333325"
       d="m 15.423843,222.33333 c -0.504,-14.11666 -1.491077,-35.20858 -2.193503,-46.87093 -1.746551,-28.99789 -1.731785,-69.36742 0.02657,-72.65295 0.775364,-1.44877 1.409752,-4.473585 1.409752,-6.721795 0,-2.24821 0.599999,-4.087655 1.333333,-4.087655 0.873694,0 1.333333,26.88889 1.333333,78 0,42.9 -0.223453,78 -0.496563,78 -0.273109,0 -0.908925,-11.55 -1.412926,-25.66667 z"
       id="path6377"
       inkscape:connector-curvature="0" />
    <path
       style="fill:#e4e4e4;stroke-width:1.33333325"
       d="m 15.507552,223.66667 c -0.485401,-13.38334 -1.523082,-36.33334 -2.305958,-51 -2.057675,-38.54919 -0.568518,-78.000003 2.944279,-78.000003 0.680622,0 1.187459,32.723243 1.187459,76.666663 C 17.333332,213.5 17.121105,248 16.861716,248 c -0.259388,0 -0.868763,-10.95 -1.354164,-24.33333 z"
       id="path6375"
       inkscape:connector-curvature="0" />
    <path
       style="fill:#e3e3e3;stroke-width:1.33333325"
       d="m 15.413203,220.33333 c -0.516913,-15.21666 -1.483992,-36.36666 -2.149062,-47 C 10.820135,134.25785 12.305575,96 16.266767,96 c 0.58661,0 1.066565,34.2 1.066565,76 0,41.8 -0.220564,76 -0.490143,76 -0.269578,0 -0.913072,-12.45 -1.429986,-27.66667 z"
       id="path6373"
       inkscape:connector-curvature="0" />
    <path
       style="fill:#e2e2e2;stroke-width:1.33333325"
       d="M 15.439717,221 C 14.930422,206.15 13.9535,184.4 13.268783,172.66667 10.864259,131.46273 12.11803,100.77086 16.379841,96.509047 c 0.52442,-0.52442 0.953491,33.346513 0.953491,75.268723 C 17.333332,213.7 17.115617,248 16.849521,248 c -0.266096,0 -0.900508,-12.15 -1.409804,-27 z"
       id="path6371"
       inkscape:connector-curvature="0" />
    <path
       style="fill:#e1e1e1;stroke-width:1.33333325"
       d="m 14.775906,207.66667 c -2.992438,-70.76768 -3.279767,-90.98386 -1.42187,-100.04121 0.935512,-4.56067 2.195317,-9.192127 2.799568,-10.292127 0.604251,-1.1 1.116884,32.349997 1.139183,74.333337 C 17.315093,213.65 17.141651,248 16.907373,248 c -0.234277,0 -1.193437,-18.15 -2.131467,-40.33333 z"
       id="path6369"
       inkscape:connector-curvature="0" />
    <path
       style="fill:#e0e0e0;stroke-width:1.33333325"
       d="m 15.439717,219.66667 c -0.509295,-14.85 -1.486217,-36.6 -2.170934,-48.33334 -0.684718,-11.73333 -1.250306,-28.9991 -1.256863,-38.36837 -0.01159,-16.55757 2.20852,-34.298293 4.292151,-34.298293 0.566093,0 1.029261,33.300003 1.029261,74.000003 0,40.7 -0.217715,74 -0.483811,74 -0.266096,0 -0.900508,-12.15 -1.409804,-27 z"
       id="path6367"
       inkscape:connector-curvature="0" />
    <path
       style="fill:#dfdfdf;stroke-width:1.33333325"
       d="m 14.886046,206.66667 c -3.19617,-72.99566 -3.391175,-85.82877 -1.468626,-96.64896 0.979198,-5.51096 2.266081,-9.53421 2.859741,-8.94055 0.593662,0.59366 0.924162,33.74416 0.734444,73.66777 l -0.34494,72.5884 z"
       id="path6365"
       inkscape:connector-curvature="0" />
    <path
       style="fill:#dedede;stroke-width:1.33333325"
       d="M 15.438159,218.33333 C 14.928632,202.75 13.951968,180.4 13.267794,168.66667 12.58362,156.93333 12.018477,140.86756 12.01192,132.96496 c -0.01188,-14.32066 2.337074,-31.63163 4.292151,-31.63163 0.566093,0 1.029261,32.7 1.029261,72.66667 0,39.96667 -0.217971,72.66667 -0.48438,72.66667 -0.266409,0 -0.901267,-12.75 -1.410793,-28.33334 z"
       id="path6363"
       inkscape:connector-curvature="0" />
    <path
       style="fill:#dddddd;stroke-width:1.33333325"
       d="m 14.803303,205 c -3.177535,-76.37181 -3.286306,-83.37379 -1.446619,-93.12376 0.955747,-5.06527 2.24148,-9.20957 2.857185,-9.20957 0.615704,0 1.119463,32.1 1.119463,71.33333 0,39.23333 -0.191681,71.33333 -0.425959,71.33333 -0.234277,0 -1.181109,-18.15 -2.10407,-40.33333 z"
       id="path6361"
       inkscape:connector-curvature="0" />
    <path
       style="fill:#dcdcdc;stroke-width:1.33333325"
       d="M 15.572499,221.66667 C 15.106396,208.65 13.992126,181.33629 13.096344,160.96953 c -1.291268,-29.3586 -1.286941,-39.02341 0.02088,-46.65006 0.907268,-5.29079 2.227048,-10.19708 2.932841,-10.90287 0.822128,-0.82213 1.283263,24.44589 1.283263,70.31673 0,39.38 -0.205509,71.6 -0.456687,71.6 -0.251177,0 -0.838044,-10.65 -1.304146,-23.66666 z"
       id="path6359"
       inkscape:connector-curvature="0" />
    <path
       style="fill:#dbdbdb;stroke-width:1.33333325"
       d="m 15.666879,220 c -0.549883,-13.56667 -1.690349,-39.96667 -2.534369,-58.66667 -1.215928,-26.93992 -1.184047,-36.44602 0.153532,-45.77958 0.991678,-6.91988 2.179765,-11.28794 2.879837,-10.58787 0.678457,0.67846 1.042932,31.01907 0.846254,70.44625 C 16.732901,231.38864 16.474979,239.93737 15.666879,220 Z"
       id="path6357"
       inkscape:connector-curvature="0" />
    <path
       style="fill:#dadada;stroke-width:1.33333325"
       d="m 16.02042,235.66667 c 0.0112,-4.58334 -0.961906,-30.60468 -2.162529,-57.82522 -1.783586,-40.43746 -1.884091,-51.59724 -0.54937,-60.99999 0.898469,-6.32947 2.171606,-11.50813 2.829195,-11.50813 0.689937,0 1.195616,29.32412 1.195616,69.33334 0,38.13333 -0.3,69.33333 -0.666667,69.33333 -0.366666,0 -0.657477,-3.75 -0.646245,-8.33333 z"
       id="path6355"
       inkscape:connector-curvature="0" />
    <path
       style="fill:#d9d9d9;stroke-width:1.33333325"
       d="m 15.999999,233.87816 c 0,-5.56703 -0.962853,-30.91703 -2.139675,-56.33333 -1.748166,-37.75591 -1.842658,-48.59018 -0.51642,-59.2115 0.892792,-7.15 2.155645,-13 2.806343,-13 0.67339,0 1.183085,29.87006 1.183085,69.33334 0,38.13333 -0.3,69.33333 -0.666667,69.33333 -0.366666,0 -0.666666,-4.55483 -0.666666,-10.12184 z"
       id="path6353"
       inkscape:connector-curvature="0" />
    <path
       style="fill:#d8d8d8;stroke-width:1.33333325"
       d="m 14.27762,186.33333 c -1.795033,-44.32337 -1.958862,-58.8206 -0.768452,-68 0.832132,-6.41666 2.032987,-11.66666 2.668565,-11.66666 0.636803,0 1.155599,30.52798 1.155599,68 0,37.4 -0.174216,68 -0.387147,68 -0.21293,0 -1.413785,-25.35 -2.668565,-56.33334 z"
       id="path6351"
       inkscape:connector-curvature="0" />
    <path
       style="fill:#d7d7d7;stroke-width:1.33333325"
       d="m 14.346579,186 c -1.758944,-43.46655 -1.973226,-59.75196 -0.885964,-67.33333 1.437368,-10.02264 1.95384,-11.69666 3.2185,-10.432 0.373514,0.37352 0.523514,30.92352 0.333333,67.88889 l -0.345783,67.20977 z"
       id="path6349"
       inkscape:connector-curvature="0" />
    <path
       style="fill:#d6d6d6;stroke-width:1.33333325"
       d="m 16.313019,232 c -0.180364,-6.23333 -1.232329,-31.35676 -2.3377,-55.82984 -1.511128,-33.45657 -1.656235,-47.34149 -0.584856,-55.96324 0.7837,-6.30671 1.677328,-11.71916 1.985838,-12.02767 1.69892,-1.69892 1.952091,9.07826 1.624523,69.15408 -0.197928,36.3 -0.50744,60.9 -0.687805,54.66667 z"
       id="path6347"
       inkscape:connector-curvature="0" />
    <path
       style="fill:#d5d5d5;stroke-width:1.33333325"
       d="m 14.685254,194 c -1.089778,-26.4 -1.955149,-52.8 -1.923048,-58.66667 0.07664,-14.00715 1.775398,-26.66239 3.36553,-25.07226 0.728811,0.72881 1.090001,27.86001 0.885097,66.4851 L 16.666665,242 Z"
       id="path6345"
       inkscape:connector-curvature="0" />
    <path
       style="fill:#d4d4d4;stroke-width:1.33333325"
       d="m 14.977672,199.33333 c -0.928946,-23.46666 -1.644369,-50.76666 -1.589828,-60.66666 0.10208,-18.52855 1.468302,-30.3264 3.088069,-26.66667 0.486851,1.1 0.728938,30.8 0.537968,66 l -0.347216,64 z"
       id="path6343"
       inkscape:connector-curvature="0" />
    <path
       style="fill:#d3d3d3;stroke-width:1.33333325"
       d="m 14.97112,198 c -1.857923,-48.21375 -1.985106,-72.78036 -0.424521,-82 2.247618,-13.27849 2.800334,0.61066 2.467282,62 l -0.347216,64 z"
       id="path6341"
       inkscape:connector-curvature="0" />
    <path
       style="fill:#d2d2d2;stroke-width:1.33333325"
       d="m 15.646012,215.33333 c -2.952291,-77.13473 -2.81594,-105.70326 0.488728,-102.39859 0.719833,0.71983 1.081947,27.57703 0.878345,65.14501 -0.302217,55.76405 -0.476654,60.5176 -1.367073,37.25358 z"
       id="path6339"
       inkscape:connector-curvature="0" />
    <path
       style="fill:#d1d1d1;stroke-width:1.33333325"
       d="m 15.654904,214 c -2.953248,-77.83785 -2.83191,-103.04367 0.480097,-99.73166 0.719668,0.71966 1.082011,27.04382 0.878346,63.81167 C 16.709409,232.95007 16.54192,237.37881 15.654904,214 Z"
       id="path6337"
       inkscape:connector-curvature="0" />
    <path
       style="fill:#d0d0d0;stroke-width:1.33333325"
       d="m 15.654904,214 c -2.9612,-78.04745 -2.827351,-104.95483 0.49258,-99.02244 0.693531,1.23927 1.064189,28.60457 0.865893,63.92796 C 16.707708,233.35555 16.546896,237.50993 15.654904,214 Z"
       id="path6335"
       inkscape:connector-curvature="0" />
    <path
       style="fill:#cfcfcf;stroke-width:1.33333325"
       d="m 15.646003,212.66667 c -2.241608,-58.56603 -2.659433,-80.41027 -1.707344,-89.26129 0.713135,-6.6296 1.340872,-8.64543 2.209098,-7.09399 0.693144,1.23858 1.064191,28.06114 0.865894,62.59461 -0.309894,53.96773 -0.456094,57.57671 -1.367648,33.76067 z"
       id="path6333"
       inkscape:connector-curvature="0" />
    <path
       style="fill:#cecece;stroke-width:1.33333325"
       d="M 15.688032,212.66667 C 15.149783,198 14.312552,174.6 13.827518,160.66667 c -0.934394,-26.84188 0.183345,-48.1737 2.323783,-44.34895 0.688563,1.23039 1.059914,28.18255 0.86235,62.58828 -0.30441,53.01284 -0.467066,57.15531 -1.325619,33.76067 z"
       id="path6331"
       inkscape:connector-curvature="0" />
    <path
       style="fill:#cdcdcd;stroke-width:1.33333325"
       d="m 15.682427,212.66667 c -2.397034,-64.94456 -2.680236,-79.22395 -1.743868,-87.92796 0.713288,-6.63036 1.340912,-8.64553 2.209338,-7.09374 0.692946,1.23822 1.064192,27.78944 0.865894,61.92795 -0.306799,52.81797 -0.461466,56.66252 -1.331364,33.09375 z"
       id="path6329"
       inkscape:connector-curvature="0" />
    <path
       style="fill:#cccccc;stroke-width:1.33333325"
       d="m 16.34112,228.66667 c -0.163057,-5.13334 -1.006131,-28.23334 -1.873497,-51.33334 -1.547855,-41.22304 -0.862052,-64.33601 1.706501,-57.51254 0.653017,1.73477 1.02444,29.03477 0.825384,60.66666 -0.199056,31.63191 -0.495329,53.31255 -0.658388,48.17922 z"
       id="path6327"
       inkscape:connector-curvature="0" />
    <path
       style="fill:#cbcbcb;stroke-width:1.33333325"
       d="m 16.334141,226.66667 c -0.166896,-6.23334 -1.000537,-28.43334 -1.852535,-49.33334 -1.528211,-37.48784 -0.825512,-61.4743 1.670277,-57.01457 0.688373,1.23005 1.053828,27.05968 0.84781,59.92161 -0.199157,31.7678 -0.498656,52.65963 -0.665552,46.4263 z"
       id="path6325"
       inkscape:connector-curvature="0" />
    <path
       style="fill:#cacaca;stroke-width:1.33333325"
       d="m 16.341591,226.66667 c -0.162443,-5.5 -0.998831,-27.7 -1.858639,-49.33334 -1.533559,-38.58534 -0.88565,-60.24602 1.665696,-55.68702 0.692532,1.23749 1.057996,26.40018 0.851031,58.59462 -0.199507,31.03415 -0.495647,51.92574 -0.658088,46.42574 z"
       id="path6323"
       inkscape:connector-curvature="0" />
    <path
       style="fill:#c9c9c9;stroke-width:1.33333325"
       d="m 16.329,224.66667 c -0.169367,-6.6 -0.997456,-28.2 -1.840198,-48 -1.51916,-35.69226 -0.801763,-59.41901 1.66339,-55.01403 0.687961,1.22932 1.053688,26.51272 0.847487,58.58829 -0.199507,31.03415 -0.501311,51.02574 -0.670679,44.42574 z"
       id="path6321"
       inkscape:connector-curvature="0" />
    <path
       style="fill:#c8c8c8;stroke-width:1.33333325"
       d="M 16.32586,222.66667 C 16.155139,215.7 15.340519,194.85595 14.515592,176.34655 c -1.515837,-34.0118 -0.708544,-60.17084 1.662092,-53.85743 0.651736,1.73568 1.021535,27.83568 0.821776,58 -0.199759,30.16432 -0.502879,49.14421 -0.6736,42.17755 z"
       id="path6319"
       inkscape:connector-curvature="0" />
    <path
       style="fill:#c7c7c7;stroke-width:1.33333325"
       d="m 15.064931,184 c -0.880953,-27.5 -1.137525,-53 -0.570159,-56.66667 2.195591,-14.18922 2.908363,0.76079 2.542773,53.33334 L 16.666665,234 Z"
       id="path6317"
       inkscape:connector-curvature="0" />
    <path
       style="fill:#c6c6c6;stroke-width:1.33333325"
       d="M 15.062699,183.33333 C 14.180518,156.2 13.9216,131 14.487327,127.33333 l 1.028594,-6.66666 0.95911,4.66666 c 0.52751,2.56667 0.786428,27.76667 0.575372,56 l -0.383738,51.33334 z"
       id="path6315"
       inkscape:connector-curvature="0" />
    <path
       style="fill:#c5c5c5;stroke-width:1.33333325"
       d="m 15.103207,184 c -1.504285,-45.54192 -0.958477,-68.51111 1.362392,-57.33333 0.532922,2.56666 0.796177,27.16666 0.585009,54.66666 l -0.383943,50 z"
       id="path6313"
       inkscape:connector-curvature="0" />
    <path
       style="fill:#c4c4c4;stroke-width:1.33333325"
       d="M 15.127146,184.66667 C 13.639842,139.58283 14.174123,116.96449 16.465704,128 c 0.532981,2.56667 0.796236,26.86667 0.585009,54 l -0.384048,49.33333 z"
       id="path6311"
       inkscape:connector-curvature="0" />
    <path
       style="fill:#c3c3c3;stroke-width:1.33333325"
       d="m 15.174228,184.66667 c -0.82084,-24.93334 -1.090558,-48.93334 -0.599373,-53.33334 l 0.893065,-8 0.997281,7.33334 C 17.013707,134.7 17.283424,158.7 17.064573,184 l -0.397908,46 z"
       id="path6309"
       inkscape:connector-curvature="0" />
    <path
       style="fill:#c2c2c2;stroke-width:1.33333325"
       d="M 15.159842,184 C 14.331088,159.43333 14.066236,136.03333 14.57128,132 l 0.918261,-7.33333 0.981082,6 c 0.539594,3.3 0.804448,26.7 0.588562,52 l -0.39252,46 z"
       id="path6307"
       inkscape:connector-curvature="0" />
    <path
       style="fill:#c1c1c1;stroke-width:1.33333325"
       d="m 15.612628,191.33333 c -0.579721,-19.8 -1.116941,-37.8 -1.193824,-40 -0.07688,-2.2 -0.01453,-8.8 0.138554,-14.66666 0.215405,-8.25489 0.564469,-9.95191 1.543823,-7.50547 0.739587,1.8475 1.120036,22.90307 0.915484,50.66667 l -0.35,47.50546 z"
       id="path6305"
       inkscape:connector-curvature="0" />
    <path
       style="fill:#c0c0c0;stroke-width:1.33333325"
       d="m 15.666665,199.45225 c -1.398021,-37.11429 -1.171859,-72.97049 0.43494,-68.95657 0.738484,1.8448 1.11991,22.39892 0.915486,49.33333 -0.349466,46.04454 -0.353164,46.09828 -1.350426,19.62324 z"
       id="path6303"
       inkscape:connector-curvature="0" />
    <path
       style="fill:#bfbfbf;stroke-width:1.33333325"
       d="m 15.666665,197.45292 c -1.388835,-34.09187 -1.121583,-71.37134 0.472155,-65.86171 0.677409,2.34183 1.073296,23.64183 0.879749,47.33334 -0.348954,42.71438 -0.360286,42.86969 -1.351904,18.52837 z"
       id="path6301"
       inkscape:connector-curvature="0" />
    <path
       style="fill:#bebebe;stroke-width:1.33333325"
       d="m 15.670743,197.33333 c -1.408868,-33.00814 -1.168187,-69.49894 0.432024,-65.50118 0.735413,1.83728 1.119546,21.13864 0.915484,46.00001 -0.34068,41.50589 -0.382476,42.11077 -1.347508,19.50117 z"
       id="path6299"
       inkscape:connector-curvature="0" />
    <path
       style="fill:#bdbdbd;stroke-width:1.33333325"
       d="m 15.666665,194.78801 c -1.422662,-29.22906 -1.164319,-65.62088 0.43743,-61.61893 0.731804,1.8284 1.119098,19.87848 0.915484,42.66667 -0.334295,37.41384 -0.40567,38.41369 -1.352914,18.95226 z"
       id="path6297"
       inkscape:connector-curvature="0" />
    <path
       style="fill:#bcbcbc;stroke-width:1.33333325"
       d="m 15.666665,193.45733 c -1.446678,-23.93193 -1.15323,-64.26256 0.438638,-60.28499 0.728425,1.82011 1.118658,18.87047 0.915485,40.00001 -0.312592,32.50852 -0.471403,34.88753 -1.354123,20.28498 z"
       id="path6295"
       inkscape:connector-curvature="0" />
    <path
       style="fill:#bababa;stroke-width:1.33333325"
       d="m 15.666665,192.79259 c -1.447698,-21.05063 -1.080089,-64.27583 0.489726,-57.58422 0.67202,2.8646 1.061749,20.2646 0.866064,38.66667 -0.308419,29.0036 -0.488931,31.52232 -1.35579,18.91755 z"
       id="path6293"
       inkscape:connector-curvature="0" />
    <path
       style="fill:#b9b9b9;stroke-width:1.33333325"
       d="m 15.672729,190.66667 c -1.437203,-22.17156 -1.09111,-60.83782 0.484428,-54.12128 0.672442,2.86664 1.062171,19.66664 0.866066,37.33333 -0.321674,28.97864 -0.453802,30.62112 -1.350494,16.78795 z"
       id="path6291"
       inkscape:connector-curvature="0" />
    <path
       style="fill:#b8b8b8;stroke-width:1.33333325"
       d="m 15.666665,190.12592 c -1.446353,-21.03107 -1.089445,-58.98263 0.491311,-52.24325 0.672893,2.8688 1.062623,19.0688 0.866065,36 -0.321108,27.65988 -0.458861,29.30833 -1.357376,16.24325 z"
       id="path6289"
       inkscape:connector-curvature="0" />
    <path
       style="fill:#b7b7b7;stroke-width:1.33333325"
       d="m 15.674657,189.33333 c -1.466077,-16.7494 -1.076501,-58.10098 0.48466,-51.44421 0.67363,2.87235 1.063359,18.17235 0.866066,34 -0.294531,23.62824 -0.536223,26.74961 -1.350726,17.44421 z"
       id="path6287"
       inkscape:connector-curvature="0" />
    <path
       style="fill:#b6b6b6;stroke-width:1.33333325"
       d="m 15.666665,188.79883 c -1.478329,-15.57347 -1.073243,-56.25348 0.493628,-49.57167 0.674167,2.87493 1.063896,17.57493 0.866066,32.66667 -0.292592,22.32065 -0.546244,25.47429 -1.359694,16.905 z"
       id="path6285"
       inkscape:connector-curvature="0" />
    <path
       style="fill:#b5b5b5;stroke-width:1.33333325"
       d="m 15.666665,188.79883 c -1.482205,-15.6143 -1.143979,-52.91454 0.443823,-48.9458 0.712788,1.78162 1.116389,15.59524 0.915485,31.33333 -0.289321,22.66448 -0.554089,26.09505 -1.359308,17.61247 z"
       id="path6283"
       inkscape:connector-curvature="0" />
    <path
       style="fill:#b4b4b4;stroke-width:1.33333325"
       d="m 15.674657,188 c -0.545605,-6.23333 -0.928499,-20.33333 -0.850877,-31.33333 0.113254,-16.04906 0.380887,-18.75058 1.354793,-13.67528 0.667515,3.47858 1.05041,17.57858 0.850878,31.33333 C 16.713329,196.11653 16.539065,197.87555 15.674657,188 Z"
       id="path6281"
       inkscape:connector-curvature="0" />
    <path
       style="fill:#b3b3b3;stroke-width:1.33333325"
       d="m 15.666665,187.46549 c -0.549999,-5.79397 -0.932894,-19.29397 -0.850877,-30 0.120694,-15.75508 0.380716,-18.25841 1.364103,-13.13292 0.668238,3.48292 1.051133,16.98292 0.850877,30 -0.314875,20.46747 -0.499308,22.24311 -1.364103,13.13292 z"
       id="path6279"
       inkscape:connector-curvature="0" />
    <path
       style="fill:#b2b2b2;stroke-width:1.33333325"
       d="m 15.674657,186.66667 c -1.467483,-16.76547 -1.095213,-48.84804 0.488424,-42.09276 0.675702,2.88232 1.065431,16.08232 0.866066,29.33333 -0.320943,21.33187 -0.47616,22.79403 -1.35449,12.75943 z"
       id="path6277"
       inkscape:connector-curvature="0" />
    <path
       style="fill:#b1b1b1;stroke-width:1.33333325"
       d="m 15.674657,185.33333 c -1.467685,-16.76777 -1.098569,-47.52912 0.489051,-40.75641 0.676044,2.88397 1.065773,15.78397 0.866065,28.66667 -0.325485,20.99612 -0.465893,22.24878 -1.355116,12.08974 z"
       id="path6275"
       inkscape:connector-curvature="0" />
    <path
       style="fill:#b0b0b0;stroke-width:1.33333325"
       d="m 15.666665,184.79883 c -0.549999,-5.79398 -0.929858,-18.39398 -0.844129,-28 0.136084,-15.24844 0.30944,-16.53874 1.365663,-10.16464 0.665385,4.01546 1.045244,16.61546 0.844129,28 -0.3349,18.95778 -0.449789,19.8129 -1.365663,10.16464 z"
       id="path6273"
       inkscape:connector-curvature="0" />
    <path
       style="fill:#afafaf;stroke-width:1.33333325"
       d="m 15.666665,184.79883 c -0.549999,-5.79398 -0.932894,-18.09398 -0.850877,-27.33334 0.125667,-14.1569 0.340672,-15.80009 1.367104,-10.44834 0.669889,3.49276 1.052784,15.79276 0.850877,27.33333 -0.33432,19.10896 -0.456409,20.04207 -1.367104,10.44835 z"
       id="path6271"
       inkscape:connector-curvature="0" />
    <path
       style="fill:#aeaeae;stroke-width:1.33333325"
       d="m 15.674657,184 c -0.545605,-6.23333 -0.935334,-18.23333 -0.866065,-26.66667 0.1024,-12.46688 0.356108,-14.35125 1.357155,-10.07993 0.677166,2.88937 1.066896,14.88937 0.866065,26.66667 -0.3406,19.97381 -0.431832,20.65141 -1.357155,10.07993 z"
       id="path6269"
       inkscape:connector-curvature="0" />
    <path
       style="fill:#adadad;stroke-width:1.33333325"
       d="M 15.52898,181.79883 C 14.394535,168.37836 14.685904,142.05677 15.910499,147.33333 16.912977,151.65284 17.841411,192 16.938328,192 16.63746,192 16.003253,187.40948 15.52898,181.79883 Z"
       id="path6267"
       inkscape:connector-curvature="0" />
    <path
       style="fill:#acacac;stroke-width:1.33333325"
       d="m 15.666665,182.13216 c -0.549999,-5.79397 -0.926834,-16.89397 -0.83741,-24.66667 0.156943,-13.6414 0.203791,-13.85434 1.349018,-6.13216 0.652538,4.4 1.029372,15.5 0.837411,24.66667 l -0.349019,16.66667 z"
       id="path6265"
       inkscape:connector-curvature="0" />
    <path
       style="fill:#ababab;stroke-width:1.33333325"
       d="m 15.666665,181.47108 c -0.549999,-4.69091 -0.929858,-14.59091 -0.844129,-22 0.148463,-12.83087 0.213674,-13.12256 1.372128,-6.13775 0.668943,4.03334 1.048801,13.93334 0.844131,22 -0.356932,14.06768 -0.41297,14.31835 -1.37213,6.13775 z"
       id="path6263"
       inkscape:connector-curvature="0" />
    <path
       style="fill:#aaaaaa;stroke-width:1.33333325"
       d="m 15.676144,180.66667 c -0.544786,-5.13334 -0.927681,-14.73334 -0.850877,-21.33334 0.13088,-11.24648 0.216705,-11.59777 1.366848,-5.5945 0.674962,3.52301 1.057857,13.12301 0.850877,21.33333 -0.374511,14.85581 -0.381107,14.8828 -1.366848,5.59451 z"
       id="path6261"
       inkscape:connector-curvature="0" />
    <path
       style="fill:#a9a9a9;stroke-width:1.33333325"
       d="m 15.666665,180.13775 c -0.549999,-4.69091 -0.932894,-13.99091 -0.850877,-20.66667 0.139502,-11.35464 0.228384,-11.72397 1.377632,-5.72448 0.675679,3.52731 1.058575,12.82731 0.850877,20.66667 -0.36708,13.85513 -0.405573,14.01509 -1.377632,5.72448 z"
       id="path6259"
       inkscape:connector-curvature="0" />
    <path
       style="fill:#a8a8a8;stroke-width:1.33333325"
       d="m 15.676144,179.33333 c -0.544786,-5.13333 -0.934516,-14.13333 -0.866065,-20 0.112307,-9.62496 0.245583,-10.14934 1.364744,-5.36958 0.682158,2.9134 1.071888,11.9134 0.866065,20 l -0.374223,14.70292 z"
       id="path6257"
       inkscape:connector-curvature="0" />
    <path
       style="fill:#a7a7a7;stroke-width:1.33333325"
       d="m 15.666665,178.80441 c -1.485663,-12.67112 -1.249047,-25.37086 0.419364,-22.50818 0.741275,1.27188 1.169284,8.70682 0.959455,16.66666 -0.366961,13.92062 -0.410121,14.10347 -1.378819,5.84152 z"
       id="path6255"
       inkscape:connector-curvature="0" />
    <path
       style="fill:#a6a6a6;stroke-width:1.33333325"
       d="m 15.676144,176.66667 c -0.544786,-5.13334 -0.927681,-12.33334 -0.850877,-16 L 14.964911,154 l 1.239666,6.47983 c 0.681816,3.5639 1.064712,10.7639 0.850878,16 L 16.666665,186 Z"
       id="path6253"
       inkscape:connector-curvature="0" />
    <path
       style="fill:#a5a5a5;stroke-width:1.33333325"
       d="m 15.552169,172.22561 c -0.612973,-7.57592 -0.807982,-14.0809 -0.433355,-14.45553 1.20813,-1.20813 2.400194,10.64259 1.967867,19.56325 -0.399454,8.2424 -0.474574,7.99236 -1.534512,-5.10772 z"
       id="path6251"
       inkscape:connector-curvature="0" />
    <path
       style="fill:#a4a4a4;stroke-width:1.33333325"
       d="m 15.36842,170.43997 c -0.547288,-5.62468 -0.710858,-11.02468 -0.36349,-12 0.347369,-0.97532 1.079359,2.82871 1.626647,8.45339 0.547288,5.62468 0.710859,11.02468 0.363491,12 -0.347369,0.97532 -1.07936,-2.82871 -1.626648,-8.45339 z"
       id="path6249"
       inkscape:connector-curvature="0" />
    <path
       style="fill:#a2a2a2;stroke-width:1.33333325"
       d="m 16.399551,173.33333 c 0,-4.03333 0.249954,-5.68333 0.555453,-3.66666 0.3055,2.01666 0.3055,5.31666 0,7.33333 -0.305499,2.01667 -0.555453,0.36667 -0.555453,-3.66667 z"
       id="path6247"
       inkscape:connector-curvature="0" />
    <path
       style="fill:#a1a1a1;stroke-width:1.33333325"
       d="m 16.381351,174 c 0.01,-3.66667 0.26895,-5.00841 0.575422,-2.98167 0.306474,2.02675 0.298283,5.02675 -0.0182,6.66667 -0.316482,1.63992 -0.567232,-0.0183 -0.557222,-3.685 z"
       id="path6245"
       inkscape:connector-curvature="0" />
  </g>
</svg>
