<?xml version="1.0" encoding="utf-8"?>
<!-- Generator: Adobe Illustrator 21.1.0, SVG Export Plug-In . SVG Version: 6.00 Build 0)  -->
<svg version="1.1"
	 id="Capa_1" inkscape:version="0.92.1 r15371" sodipodi:docname="logo.svg" xmlns:cc="http://creativecommons.org/ns#" xmlns:dc="http://purl.org/dc/elements/1.1/" xmlns:inkscape="http://www.inkscape.org/namespaces/inkscape" xmlns:rdf="http://www.w3.org/1999/02/22-rdf-syntax-ns#" xmlns:sodipodi="http://sodipodi.sourceforge.net/DTD/sodipodi-0.dtd" xmlns:svg="http://www.w3.org/2000/svg"
	 xmlns="http://www.w3.org/2000/svg" xmlns:xlink="http://www.w3.org/1999/xlink" x="0px" y="0px" viewBox="0 0 364.2 364.2"
	 style="enable-background:new 0 0 364.2 364.2;" xml:space="preserve">
<style type="text/css">
	.st0{fill:url(#path2_1_);}
	.st1{fill:url(#path4_1_);}
	.st2{fill:url(#path6_1_);}
	.st3{fill:url(#path8_1_);}
</style>
<sodipodi:namedview  bordercolor="#666666" borderopacity="1" gridtolerance="10" guidetolerance="10" id="namedview45" inkscape:current-layer="Capa_1" inkscape:cx="182.1015" inkscape:cy="182.10201" inkscape:pageopacity="0" inkscape:pageshadow="2" inkscape:window-height="480" inkscape:window-maximized="0" inkscape:window-width="743" inkscape:window-x="0" inkscape:window-y="0" inkscape:zoom="0.64798847" objecttolerance="10" pagecolor="#ffffff" showgrid="false">
	</sodipodi:namedview>
<g id="g12">
	<g id="g10">
		<linearGradient id="path2_1_" gradientUnits="userSpaceOnUse" x1="342.994" y1="42.621" x2="389.105" y2="42.621">
			<stop  offset="0" style="stop-color:#2C7916"/>
			<stop  offset="0.4012" style="stop-color:#2B7715"/>
			<stop  offset="0.6653" style="stop-color:#2A7615"/>
			<stop  offset="1" style="stop-color:#297414"/>
		</linearGradient>
		<path id="path2" class="st0" d="M344.1,69.7V15.5H298c1.2,6.4,3.4,14.7,7.6,23.1C313.9,55,326.8,65.4,344.1,69.7z"/>
		<linearGradient id="path4_1_" gradientUnits="userSpaceOnUse" x1="84.7339" y1="272.3559" x2="290.7339" y2="72.3559">
			<stop  offset="0" style="stop-color:#42A926"/>
			<stop  offset="1" style="stop-color:#287013"/>
		</linearGradient>
		<path id="path4" class="st1" d="M344.1,86.8c-16.7,4.2-29.4,14.1-37.7,29.5c-1.4,2.7-2.7,5.4-3.7,8v50h-71.1
			c-6.9,10.5-8.8,22-9.3,27.7h80.3v113.8H189V202h20.8c-0.3-5.2-1.8-17.1-8.4-27.7H189v-12.7c-8-5.2-18.1-7.8-30.3-7.8
			c-1.3,0-2.5-0.5-3.5-1.3v21.8H41.4V60.5h113.8v82.2c1-0.7,2.1-1.2,3.4-1.3c1.2,0,16.8-0.7,30.4-9.6V60.5h66.1
			c13.3-8.1,25.7-21.8,28.6-45H0v344.1h344.1L344.1,86.8L344.1,86.8z M155.1,315.7H41.4V202h113.8V315.7z"/>
		<linearGradient id="path6_1_" gradientUnits="userSpaceOnUse" x1="158.698" y1="147.5575" x2="273.35" y2="147.5575">
			<stop  offset="0" style="stop-color:#3D8E27"/>
			<stop  offset="1" style="stop-color:#308119"/>
		</linearGradient>
		<path id="path6" class="st2" d="M158.7,147.6c12.8,0,22.6,2.8,30.3,6.9c9.4,5.1,15.6,12.3,19.6,19.7c5.9,11.1,7.2,22.4,7.4,27.7
			c0.1,1.4,0.1,2.5,0.1,2.8c0-0.4,0.1-1.4,0.2-2.8c0.5-5.2,2.2-16.6,8.4-27.7c7.6-13.6,21.8-26.6,48.8-26.7c0,0-0.1,0-0.1,0
			c-56.4,0-57.2-57.3-57.2-57.3c0,26.8-13.3,41-27.1,48.6C174.1,147.1,158.7,147.6,158.7,147.6z"/>
		<linearGradient id="path8_1_" gradientUnits="userSpaceOnUse" x1="270.1106" y1="105.8227" x2="310.1106" y2="51.8227">
			<stop  offset="0" style="stop-color:#2C7916"/>
			<stop  offset="0.4012" style="stop-color:#2B7715"/>
			<stop  offset="1" style="stop-color:#297414"/>
		</linearGradient>
		<path id="path8" class="st3" d="M344.1,76.1c-38.5-8.8-49.3-42.8-52.3-60.5c-1.1-6.6-1.2-11-1.2-11c0,3.9-0.3,7.5-0.7,11
			c-2.5,21.6-12.4,35.7-24.2,45c-21.4,16.9-48.8,17.7-48.8,17.7c73.8,0.1,73.7,69.2,73.6,73.4c0.1-2.2,1-22.5,12.1-41.2
			c7.8-13,20.5-25.1,41.4-30c6-1.4,12.7-2.2,20.1-2.2c0,0-0.1,0-0.2,0C356.7,78.2,350.1,77.4,344.1,76.1z"/>
	</g>
</g>
<g id="g14">
</g>
<g id="g16">
</g>
<g id="g18">
</g>
<g id="g20">
</g>
<g id="g22">
</g>
<g id="g24">
</g>
<g id="g26">
</g>
<g id="g28">
</g>
<g id="g30">
</g>
<g id="g32">
</g>
<g id="g34">
</g>
<g id="g36">
</g>
<g id="g38">
</g>
<g id="g40">
</g>
<g id="g42">
</g>
</svg>
