<?xml version="1.0" encoding="utf-8"?>
<!-- Generator: Adobe Illustrator 19.1.0, SVG Export Plug-In . SVG Version: 6.00 Build 0)  -->
<svg version="1.1" xmlns="http://www.w3.org/2000/svg" xmlns:xlink="http://www.w3.org/1999/xlink" x="0px" y="0px"
	 viewBox="0 0 1920 1066.1" style="enable-background:new 0 0 1920 1066.1;" xml:space="preserve">
<style type="text/css">
	.st0{fill:#CBD9E6;}
	.st1{fill:#FC8E2B;}
	.st2{fill:#FFFFFF;stroke:#0000FF;stroke-miterlimit:10;}
	.st3{fill:none;stroke:#A0C100;stroke-width:3;stroke-linecap:round;stroke-linejoin:round;stroke-miterlimit:10;}
	.st4{fill:none;stroke:#FBBA00;stroke-width:3;stroke-linecap:round;stroke-linejoin:round;stroke-miterlimit:10;}
	.st5{fill:none;stroke:#8ED1EE;stroke-width:28;stroke-linecap:round;stroke-linejoin:round;stroke-miterlimit:10;}
	.st6{fill:none;stroke:#8ED1EE;stroke-width:28;stroke-linejoin:round;stroke-miterlimit:10;}
	.st7{fill:#C4D8A7;}
	.st8{fill:none;stroke:#E31E25;stroke-width:6;stroke-linecap:round;stroke-linejoin:round;stroke-miterlimit:10;}
	.st9{fill:none;stroke:#008DCF;stroke-width:6;stroke-linecap:round;stroke-linejoin:round;stroke-miterlimit:10;}
	
		.st10{fill:none;stroke:#B3B3B3;stroke-width:2;stroke-linecap:round;stroke-linejoin:round;stroke-miterlimit:10;stroke-dasharray:5;}
	.st11{fill:none;stroke:#000000;stroke-width:2;stroke-linecap:round;stroke-linejoin:round;stroke-miterlimit:10;}
	.st12{fill:none;stroke:#FBBA00;stroke-width:3;stroke-linecap:round;stroke-linejoin:round;}
	.st13{fill:none;stroke:#FBBA00;stroke-width:3;stroke-linecap:round;stroke-linejoin:round;stroke-dasharray:4.7504,4.7504;}
	.st14{fill:#29ABE2;}
	.st15{font-family:'MyriadPro-Bold';}
	.st16{font-size:9px;}
	.st17{fill:#666666;}
	.st18{font-family:'MyriadPro-Regular';}
	.st19{font-size:8px;}
	.st20{fill:#789B2C;}
	.st21{font-family:'MyriadPro-It';}
	.st22{font-size:6px;}
	.st23{fill:#FFFFFF;}
	.st24{fill:#ED5F5F;}
	.st25{fill:#7688A0;}
	.st26{fill:#603813;}
	.st27{fill:#0071BC;}
	.st28{font-size:11px;}
	.st29{fill:#42210B;}
	.st30{fill:none;}
</style>
<g id="Слой_6">
	<g>
		<rect x="0.5" y="1.2" class="st0" width="1919" height="1064.4"/>
		<path class="st1" d="M1919,1.7v1063.4H1V1.7H1919 M1920,0.7H0v1065.4h1920V0.7L1920,0.7z"/>
	</g>
</g>
<g id="Layer_3">
	<path class="st2" d="M1308.7,533.4h-27.2c-2,0-3.6-1.6-3.6-3.6v-37.9c0-2,1.6-3.6,3.6-3.6h27.2c2,0,3.6,1.6,3.6,3.6v37.9
		C1312.3,531.7,1310.7,533.4,1308.7,533.4z"/>
	<path class="st3" d="M1294.1,82.2v191.9l-7.5,15v327.3l5.6,8.9v211.9c0,15.8,6.2,31,17.2,42.4l151,155.1"/>
	<path class="st4" d="M1438.6,97.6h-436.7c-1.8,0-3.3,1.5-3.3,3.3v430.8c0,45.1,36.6,83.5,81.6,83.5h723.6
		c28.1,0,50.9-22.8,50.9-50.9v-19.6"/>
	<line class="st5" x1="200" y1="912" x2="425" y2="912"/>
	<path class="st2" d="M791,533.4h-27.2c-2,0-3.6-1.6-3.6-3.6v-37.9c0-2,1.6-3.6,3.6-3.6H791c2,0,3.6,1.6,3.6,3.6v37.9
		C794.7,531.7,793,533.4,791,533.4z"/>
	<path class="st2" d="M609,738.1l-22.8-14.8c-1.7-1.1-2.2-3.4-1.1-5l20.6-31.8c1.1-1.7,3.4-2.2,5-1.1l22.8,14.8
		c1.7,1.1,2.2,3.4,1.1,5L614,737C612.9,738.7,610.7,739.2,609,738.1z"/>
	<path class="st2" d="M1167,533.4h-27.2c-2,0-3.6-1.6-3.6-3.6v-37.9c0-2,1.6-3.6,3.6-3.6h27.2c2,0,3.6,1.6,3.6,3.6v37.9
		C1170.7,531.7,1169,533.4,1167,533.4z"/>
	<line class="st3" x1="1156.5" y1="503" x2="1156.5" y2="955"/>
	<line class="st4" x1="235" y1="517.5" x2="78" y2="517.5"/>
	<path class="st3" d="M1436.6,82.2h-423.9l2.5,443.6c0,47.4,31.8,72.8,73.4,72.8h603.6l20.2,8.2h69.9c6,0,10.8,4.8,10.8,10.8V656"/>
	<path class="st6" d="M912.9,0.7v356.2c0,8.4,2.2,16.6,6.5,23.8l41.7,71.1c4.2,7.2,6.5,15.4,6.5,23.8V520c0,8.7-2.4,17.3-7,24.7
		L778.8,839.2c-4.6,7.4-7,16-7,24.7v50.8c0,9.1-2.7,18.1-7.6,25.7l-41.2,63.2c-5,7.6-7.6,16.6-7.6,25.7v36.8"/>
	<line class="st4" x1="998.5" y1="101" x2="998.5" y2="44"/>
	<path class="st3" d="M257.9,1015.5l64-48.8v-471h-9.4H205.8c-12.8,0-24.6,6.9-31.6,17.6L95.4,636.7"/>
	<path class="st7" d="M421,894.8h-96v-37.9h133.2v0.8C458.2,878.2,441.5,894.8,421,894.8z"/>
	<path class="st4" d="M1288.5,523H711.9l-7.2-6.6H220.2c-12.6,0-24.3,6.1-31.1,16.2l-74.9,110.9c-20.9,29.4-0.2,65.5,36.2,63.1h81.5
		l5.3-10.4h372.7"/>
	<path class="st4" d="M1641.4,168.2h86.6v189.4c0,7.2-4.5,13.7-11.3,16.2L1507.8,451c-10.2,3.7-17,13.4-17,24.2v140.1"/>
	<path class="st4" d="M1641.4,168.2h86.6v189.4c0,7.2-4.5,13.7-11.3,16.2l-40.4,14.9c-6.6,2.4-10.9,8.7-10.9,15.7v422.5
		c0,26.3-16.7,49.6-41.6,58.1l-223,75.7"/>
	<path class="st4" d="M707.8,510.8v32L465.6,923l-13.8,20c-2.3,3.3-2.3,7.6-0.1,10.9l53.8,82.2"/>
	<polyline class="st8" points="241,704 606.1,704 734.1,788.1 787.5,703.7 	"/>
	<line class="st4" x1="609.9" y1="714.1" x2="736.8" y2="798"/>
	<polyline class="st3" points="430.5,723 430.5,863.5 530,863.5 	"/>
	<line class="st4" x1="154" y1="613.5" x2="439" y2="613.5"/>
	<path class="st4" d="M257.5,982.8l58-44.7V503.5h-106c-12.8,0-24.6,5.8-31.6,16.6L99,642.9"/>
	<line class="st3" x1="257.6" y1="990.3" x2="321.9" y2="941.1"/>
	<polyline class="st4" points="257,853.5 528.9,853.5 604.7,898.1 681.4,776.7 730.4,808.3 	"/>
	<line class="st9" x1="1157" y1="351" x2="1295" y2="351"/>
	<polyline class="st3" points="241,722.5 600,722.5 613.1,731.1 	"/>
	<polyline class="st8" points="1007,344 1280,344 1280,284 1143,284 1143,344 	"/>
	<polyline class="st3" points="929,969.5 869.5,969.5 869.5,669.2 869.5,505 	"/>
	<path class="st4" d="M628.7,516.4v-11.5c0-38.3,31.1-69.4,69.4-69.4h84.9"/>
	<polyline class="st9" points="715,511 715,542.8 472.8,923.1 	"/>
	<path class="st9" d="M606.6,712.2H142.5c-34.5,0-55.4-38.3-36.7-67.5l76-118.5c6.9-10.8,18.8-17.3,31.6-17.3h942.8V303.7h138.8
		v191.1"/>
	<path class="st3" d="M626.5,182v215.9l35.8,54.5c10.3-6,23.1-9.8,35.8-9.8H782"/>
	<line class="st4" x1="1000" y1="246.5" x2="1134" y2="246.5"/>
	<line class="st4" x1="695.6" y1="865.3" x2="874.7" y2="579.1"/>
	<path class="st10" d="M1526.6,1.6v95.7c0,10.1-2.8,19.9-8,28.5L1337,422.4c-5.3,8.6-8,18.4-8,28.5V1065"/>
	<path class="st10" d="M1328.9,547.8c0,12.5,10.1,22.6,22.6,22.6H1920"/>
	<path class="st8" d="M430.4,1004.6l294.3-461.8V524c0-4.2,3.4-7.5,7.5-7.5h560.9V603"/>
	<line class="st4" x1="400" y1="1036.2" x2="451.6" y2="955.1"/>
	<path class="st8" d="M1438.1,91h-431.1v440.5c0,41.6,33.7,75.3,75.3,75.3h589.2V413.2c0-8.1,5.1-15.3,12.7-18l40.6-14.5
		c7.6-2.7,12.7-9.9,12.7-18v-123"/>
	<polyline class="st8" points="777,516 777,407 1006.6,327.8 	"/>
	<polyline class="st4" points="784.5,522 784.5,396 998.1,321.8 	"/>
	<path class="st4" d="M540.2,516.4v-67.1c0-28.5,23.1-51.5,51.5-51.5h42.6"/>
	<path class="st7" d="M744.2,448.7h-52.3c-30.8,0-55.7,23.5-55.7,52.4v0h108V448.7z"/>
	<polyline class="st4" points="635.5,182 635.5,397.9 664.4,443 	"/>
	<line class="st8" x1="1070" y1="517" x2="1070" y2="603"/>
	<line class="st3" x1="768.5" y1="121" x2="768.5" y2="503"/>
	<polyline class="st4" points="776.5,121 776.5,392.2 782.9,397.3 	"/>
	<polyline class="st3" points="1287,510.5 1167.9,510.5 1156.9,504.5 730.5,504.5 730.5,545 722.8,558 481.6,938.7 	"/>
	<polyline class="st4" points="1150.5,948 1150.5,289.5 1300,289.5 	"/>
	<line class="st3" x1="322" y1="939.5" x2="654" y2="939.5"/>
	<line class="st4" x1="654" y1="944.5" x2="453" y2="944.5"/>
	<line class="st4" x1="874" y1="892.5" x2="842" y2="892.5"/>
	<polyline class="st4" points="929,974.5 874.5,974.5 874.5,525 	"/>
	<line class="st4" x1="876.8" y1="716.9" x2="1148.8" y2="625.1"/>
	<line class="st3" x1="871" y1="812.5" x2="1156" y2="812.5"/>
	<line class="st4" x1="875" y1="804.5" x2="1150" y2="804.5"/>
	<line class="st4" x1="1075" y1="948.5" x2="1186" y2="948.5"/>
	<line class="st3" x1="1296" y1="209.5" x2="1412" y2="209.5"/>
	<line class="st3" x1="1075" y1="956.5" x2="1186" y2="956.5"/>
	<line class="st4" x1="438.5" y1="517" x2="438.5" y2="853"/>
	<path class="st4" d="M1302.6,97.6v187.6l-1.9,343.5V836c0,15.5,6.2,30.4,17.2,41.5l151,151.7"/>
	<g>
		<g>
			<path class="st12" d="M1479.9,1040.1c0.6,0.6,1.2,1.2,1.8,1.7"/>
			<path class="st13" d="M1485.7,1044.5c3.9,2.2,8.4,3.4,13,3.4h60.1"/>
			<line class="st12" x1="1561.1" y1="1047.9" x2="1563.6" y2="1047.9"/>
		</g>
	</g>
	<line class="st3" x1="869" y1="902.5" x2="842" y2="902.5"/>
	<line class="st4" x1="1304" y1="204.5" x2="1412" y2="204.5"/>
	<rect x="640.6" y="247.9" class="st7" width="81.9" height="55.8"/>
	<line class="st4" x1="1491" y1="509.5" x2="1664" y2="509.5"/>
	<line class="st4" x1="1540.5" y1="740" x2="1540.5" y2="616"/>
	<rect x="343.1" y="451.7" class="st7" width="95.5" height="47.4"/>
	<path class="st7" d="M674.1,884.6l-12.9,20c-1.8,2.8-5.6,3.6-8.4,1.8l-35.7-23.1l19.5-30.2l35.7,23.1
		C675.1,878,675.9,881.8,674.1,884.6z"/>
</g>
<g id="Слой_5">
	<text transform="matrix(1 0 0 1 212.1768 916.6322)" class="st14 st15 st16">Вишенське Озеро</text>
	<text transform="matrix(0.5254 -0.8509 0.8509 0.5254 886.0886 659.129)" class="st14 st15 st16">річка Південний Буг</text>
	<text transform="matrix(0 -1 1 0 168.5298 773.6459)" class="st17 st18 st19">9 мікрорайон</text>
	<text transform="matrix(0 -1 1 0 227.5298 778.7975)" class="st17 st18 st19">ТЦ «Вишенька»</text>
	<text transform="matrix(0 -1 1 0 267.2798 747.3264)"><tspan x="0" y="0" class="st17 st18 st19">Воїнів</tspan><tspan x="-43.1" y="6" class="st17 st18 st19">Інтернаціоналістів</tspan></text>
	<text transform="matrix(0 -1 1 0 331.0298 785.7175)" class="st17 st18 st19">Проспект Юності</text>
	<text transform="matrix(0 -1 1 0 331.0298 935.0394)" class="st17 st18 st19">Дендорологіний парк</text>
	<text transform="matrix(0 -1 1 0 272.5298 931.2955)" class="st17 st18 st19">Юності 2-й провулок</text>
	<text transform="matrix(0 -1 1 0 356.3631 934.4864)" class="st17 st18 st19">Пирогова</text>
	<text transform="matrix(1 0 0 1 280.2554 984.0077)" class="st17 st18 st19">Комарова</text>
	<text transform="matrix(1 0 0 1 356.3628 879.6251)" class="st20 st21 st22">Парк Дружби народів</text>
	<text transform="matrix(1 0 0 1 628.979 878.875)"><tspan x="0" y="0" class="st20 st21 st22">Парк ім. Лікаря</tspan><tspan x="0" y="6" class="st20 st21 st22">О. І. Ющенка</tspan></text>
	<text transform="matrix(1 0 0 1 360.7305 475.9686)" class="st20 st21 st22">Лісопарк</text>
	<text transform="matrix(0 -1 1 0 351.3631 846.1531)" class="st17 st18 st19">Школа №10</text>
	<text transform="matrix(0 -1 1 0 373.0298 846.1531)"><tspan x="0" y="0" class="st17 st18 st19">Парк</tspan><tspan x="0" y="6" class="st17 st18 st19">Дружби Народів</tspan></text>
	<text transform="matrix(0 -1 1 0 347.0298 802.5813)" class="st23 st15 st16">Просп. Юності</text>
	<text transform="matrix(1 0 0 1 346.189 866.0463)" class="st23 st15 st16">вул. Стахурського</text>
	<text transform="matrix(1 0 0 1 369.1191 953.713)" class="st23 st15 st16">вул. Пирогова</text>
	<text transform="matrix(0 -1 1 0 347.0298 681.248)" class="st23 st15 st16">Просп. Юності</text>
	<text transform="matrix(0 -1 1 0 451.6206 681.311)" class="st23 st15 st16">вул. 600-річчя</text>
	<text transform="matrix(0 -1 1 0 463.0298 804.3177)" class="st23 st15 st16">вул. 600 річчя</text>
	<text transform="matrix(1 0 0 1 358.0166 681.9225)" class="st23 st15 st16">вул. Келецька</text>
	<text transform="matrix(1 0 0 1 470.8369 681.9225)" class="st23 st15 st16">вул. Келецька</text>
	<text transform="matrix(1 0 0 1 359.792 624.5891)" class="st23 st15 st16">вул. Порика</text>
	<text transform="matrix(1 0 0 1 541.6606 527.2558)" class="st23 st15 st16">Хмельницьке шосе</text>
	<text transform="matrix(1 0 0 1 778.4292 554.8127)" class="st23 st15 st16">вул. Собона</text>
	<text transform="matrix(0.5451 -0.8384 0.8384 0.5451 687.7524 635.6794)" class="st23 st15 st16">вул. Пирогова</text>
	<text transform="matrix(0.5354 -0.8446 0.8446 0.5354 650.1023 847.6133)" class="st23 st15 st16">вул. Зодчих</text>
	<text transform="matrix(0.5354 -0.8446 0.8446 0.5354 502.3333 841.4588)" class="st23 st15 st16">вул. Пирогова</text>
	<text transform="matrix(1 0 0 1 555.9063 925.5893)" class="st23 st15 st16">Сабарівське шосе</text>
	<text transform="matrix(1 0 0 1 990.6191 780.0893)" class="st23 st15 st16">вул. Московська</text>
	<text transform="matrix(4.489659e-011 -1 1 4.489659e-011 858.0002 989.7145)" class="st23 st15 st16">вул. Маяковського</text>
	<text transform="matrix(0 -1 1 0 1125.1553 773.4157)" class="st23 st15 st16">вул. Данила Нечая</text>
	<text transform="matrix(0.5268 -0.85 0.85 0.5268 821.6054 698.4669)" class="st23 st15 st16">вул. Свердлова</text>
	<text transform="matrix(0 -1 1 0 974.2385 418.8778)" class="st23 st15 st16">вул. Київська</text>
	<text transform="matrix(0.9452 -0.3265 0.3265 0.9452 832.2483 358.143)" class="st23 st15 st16">вул. Чорновола</text>
	<text transform="matrix(0 -1 1 0 615.2385 303.7331)" class="st23 st15 st16">вул. Салтикова-Щедріна</text>
	<text transform="matrix(0 -1 1 0 757.2385 280.7331)" class="st23 st15 st16">вул. Івана Богуна</text>
	<text transform="matrix(1 0 0 1 1063.0952 321.8077)" class="st23 st15 st16">вул. Фрунзе</text>
	<text transform="matrix(1 0 0 1 1183.8765 109.8077)" class="st23 st15 st16">вул. Тарногродського</text>
	<text transform="matrix(1 0 0 1 1210.9985 321.8077)" class="st23 st15 st16">вул. Фрунзе</text>
	<text transform="matrix(4.489659e-011 -1 1 4.489659e-011 1168.2159 476.9595)" class="st23 st15 st16">вул. 50-річчя Перемоги</text>
	<text transform="matrix(4.489659e-011 -1 1 4.489659e-011 1273.822 252.9116)" class="st23 st15 st16">вул. Кірова</text>
	<text transform="matrix(0 -1 1 0 1273.8219 766.4426)" class="st23 st15 st16">вул. Привокзальна</text>
	<text transform="matrix(0 -1 1 0 1528.0719 706.6696)" class="st23 st15 st16">вул. Іванова</text>
	<text transform="matrix(0 -1 1 0 1676.7385 706.6696)" class="st23 st15 st16">вул.Чехова</text>
	<text transform="matrix(1 0 0 1 1366.3599 585.842)" class="st23 st15 st16">вул. Лебединського</text>
	<text transform="matrix(4.489659e-011 -1 1 4.489659e-011 1478.2253 541.9751)" class="st23 st15 st16">вул. Карла Маркса</text>
	<text transform="matrix(1 0 0 1 1543.2959 520.1058)" class="st23 st15 st16">пров. Карла Маркса</text>
	<text transform="matrix(4.489659e-011 -1 1 4.489659e-011 1640.8032 492.4092)" class="st23 st15 st16">вул. Чехова</text>
	<text transform="matrix(4.489659e-011 -1 1 4.489659e-011 1705.4355 328.4092)" class="st23 st15 st16">вул. Ватутіна</text>
	<text transform="matrix(0.9375 -0.348 0.348 0.9375 1568.5094 413.5654)" class="st23 st15 st16">вул. Ватутіна</text>
	<text transform="matrix(1 0 0 1 1562.1377 585.842)" class="st23 st15 st16">Немирівське шосе</text>
	<text transform="matrix(0 -1 1 0 1273.8219 845.9609)" class="st23 st15 st16">вул.Бучми</text>
	<text transform="matrix(0.9471 -0.321 0.321 0.9471 1484.6083 916.6321)" class="st23 st15 st16">вул. Блюхера</text>
	<text transform="matrix(1 0 0 1 1165.522 554.813)" class="st23 st15 st16">просп. Коцюбинського</text>
	<text transform="matrix(1 0 0 1 1195.0518 584.4797)" class="st23 st15 st16">вул. Островського</text>
	<text transform="matrix(0.9453 -0.3263 0.3263 0.9453 953.3301 676.0253)" class="st23 st15 st16">вул. Гліба Успенського</text>
	<text transform="matrix(0 -1 1 0 379.7798 769.6862)" class="st17 st18 st19">Космонавтів</text>
	<text transform="matrix(0 -1 1 0 446.5298 759.8859)" class="st17 st18 st19">600-річчя</text>
	<text transform="matrix(0 -1 1 0 447.5298 843.2365)" class="st17 st18 st19">ДПІ</text>
	<text transform="matrix(0 -1 1 0 511.7798 934.4865)"><tspan x="0" y="0" class="st17 st18 st19">Очисні</tspan><tspan x="0" y="6" class="st17 st18 st19">споруди</tspan></text>
	<text transform="matrix(0 -1 1 0 490.5298 843.2365)" class="st17 st18 st19">Лізи Чайкіної</text>
	<text transform="matrix(0 -1 1 0 568.3228 1014.7499)" class="st17 st18 st19">Автогосподарство</text>
	<text transform="matrix(0 -1 1 0 595.3228 981.3903)" class="st17 st18 st19">Вишнева</text>
	<text transform="matrix(0 -1 1 0 619.3228 1007.5178)" class="st17 st18 st19">Черняховського</text>
	<text transform="matrix(0 -1 1 0 855.5 889.1609)" class="st17 st18 st19">Ушакова</text>
	<text transform="matrix(1 0 0 1 808.4136 802.0417)" class="st17 st18 st19">Площа 8 Березня</text>
	<text transform="matrix(0 -1 1 0 490.5298 774.5339)" class="st17 st18 st19">Лялі Ратушної</text>
	<text transform="matrix(0 -1 1 0 533.0298 761.4538)" class="st17 st18 st19">Шевченка</text>
	<text transform="matrix(1 0 0 1 280.0933 730.7919)" class="st17 st18 st19">Келецька</text>
	<text transform="matrix(1 0 0 1 328.7798 530.4586)" class="st17 st18 st19">Юності просп.</text>
	<text transform="matrix(1 0 0 1 328.7798 599.7919)" class="st17 st18 st19">Порика</text>
	<text transform="matrix(1 0 0 1 109.5684 567.2919)" class="st17 st18 st19">Квятека</text>
	<text transform="matrix(1 0 0 1 67.6025 611.547)" class="st17 st18 st19">Стельмаха</text>
	<text transform="matrix(1 0 0 1 55.2065 656.547)"><tspan x="0" y="0" class="st17 st18 st19">100-річчя</tspan><tspan x="-10.1" y="6" class="st17 st18 st19">Вінницького</tspan><tspan x="3.1" y="12" class="st17 st18 st19">трамваю</tspan></text>
	<text transform="matrix(0 -1 1 0 375.9222 601.5718)"><tspan x="0" y="0" class="st17 st18 st19">Космонавтів</tspan><tspan x="0" y="6" class="st17 st18 st19">просп.</tspan></text>
	<text transform="matrix(1 0 0 1 446.5298 574.7336)" class="st17 st18 st19">Пожежна Частина</text>
	<text transform="matrix(1 0 0 1 561.042 680.4836)"><tspan x="0" y="0" class="st17 st18 st19">Медичний</tspan><tspan x="-4.7" y="6" class="st17 st18 st19">університет</tspan></text>
	<text transform="matrix(1 0 0 1 596.3394 626.4839)"><tspan x="0" y="0" class="st24 st18 st22">Лікарня</tspan><tspan x="-12.7" y="6" class="st24 st18 st22">ім. Пирогова</tspan></text>
	<text transform="matrix(1 0 0 1 839.624 559.1059)"><tspan x="0" y="0" class="st24 st21 st22">Вінницька</tspan><tspan x="-4.2" y="6" class="st24 st21 st22">міська рада</tspan></text>
	<text transform="matrix(1 0 0 1 905.314 559.9999)"><tspan x="0" y="0" class="st25 st21 st22">Свято-</tspan><tspan x="-13.6" y="6" class="st25 st21 st22">Преображенський</tspan><tspan x="-17.3" y="12" class="st25 st21 st22">кафедральний собор</tspan></text>
	<text transform="matrix(1 0 0 1 835.125 464.8369)"><tspan x="0" y="0" class="st25 st21 st22">Водонапірна</tspan><tspan x="10.1" y="6" class="st25 st21 st22">вежа</tspan></text>
	<text transform="matrix(1 0 0 1 974.5889 567.2919)"><tspan x="0" y="0" class="st25 st21 st22">Свтло=</tspan><tspan x="-1.9" y="6" class="st25 st21 st22">музичний</tspan><tspan x="-0.4" y="12" class="st25 st21 st22">фонтан</tspan></text>
	<text transform="matrix(1 0 0 1 822.9268 747.6254)"><tspan x="0" y="0" class="st25 st21 st22">Дерев’яний храм</tspan><tspan x="-3.6" y="6" class="st25 st21 st22">Святого Миколая</tspan></text>
	<text transform="matrix(1 0 0 1 315.8574 967.0002)"><tspan x="0" y="0" class="st25 st21 st22">Національний</tspan><tspan x="1.4" y="6" class="st25 st21 st22">музей-садиба</tspan><tspan x="1" y="12" class="st25 st21 st22">М. І. Пирогова</tspan></text>
	<text transform="matrix(1 0 0 1 261.2915 1020.7504)"><tspan x="0" y="0" class="st25 st21 st22">Склеп-могила</tspan><tspan x="0.4" y="6" class="st25 st21 st22">М. І. Пирогова</tspan></text>
	<text transform="matrix(1 0 0 1 446.5298 606.067)" class="st17 st18 st19">М.Т.Е.</text>
	<text transform="matrix(0 -1 1 0 282.1722 601.5718)" class="st17 st18 st19">Завод «Маяк»</text>
	<text transform="matrix(0 -1 1 0 221.9222 601.5718)" class="st17 st18 st19">Квятека</text>
	<text transform="matrix(0 -1 1 0 280.2556 490.2385)"><tspan x="0" y="0" class="st17 st18 st19">Воїнів</tspan><tspan x="0" y="6" class="st17 st18 st19">Інтернаціоналістів</tspan></text>
	<text transform="matrix(0 -1 1 0 465.0056 501.0667)" class="st17 st18 st19">Максимовича</text>
	<text transform="matrix(0 -1 1 0 504.2556 501.0667)" class="st17 st18 st19">Олександра Музики</text>
	<text transform="matrix(0 -1 1 0 529.2556 501.0667)" class="st17 st18 st19">Палац Школярів</text>
	<text transform="matrix(0 -1 1 0 597.5056 501.0667)" class="st17 st18 st19">40-річчя Перемоги</text>
	<text transform="matrix(1 0 0 1 565.7817 411.7891)" class="st17 st18 st19">Арабея</text>
	<text transform="matrix(1 0 0 1 546.0317 440.7891)"><tspan x="0" y="0" class="st17 st18 st19">Училище</tspan><tspan x="0" y="6" class="st17 st18 st19">цивільної</tspan><tspan x="0" y="12" class="st17 st18 st19">оборони</tspan></text>
	<text transform="matrix(1 0 0 1 546.0317 497.5391)" class="st17 st18 st19">Кладовище</text>
	<text transform="matrix(1 0 0 1 630.479 436.7891)" class="st17 st18 st19">Лесі Українки</text>
	<text transform="matrix(1 0 0 1 658.146 421.9039)" class="st17 st18 st19">Михайловського</text>
	<text transform="matrix(1 0 0 1 643.646 401.0628)" class="st17 st18 st19">Салтикова-Щедріна</text>
	<text transform="matrix(1 0 0 1 643.646 384.8961)" class="st17 st18 st19">Каховського</text>
	<text transform="matrix(1 0 0 1 643.646 368.3961)" class="st17 st18 st19">Ціолковського</text>
	<text transform="matrix(1 0 0 1 643.646 353.3961)" class="st17 st18 st19">Лазо</text>
	<text transform="matrix(1 0 0 1 717.9316 391.3961)"><tspan x="0" y="0" class="st17 st18 st19">Площа Героїв</tspan><tspan x="16.4" y="6" class="st17 st18 st19">Майдану</tspan></text>
	<text transform="matrix(1 0 0 1 643.646 296.5628)" class="st17 st18 st19">Садиба Грохольських</text>
	<text transform="matrix(1 0 0 1 643.646 238.2294)" class="st17 st18 st19">Автополігон</text>
	<text transform="matrix(1 0 0 1 643.646 207.2294)" class="st17 st18 st19">Міське ДАІ (на вимогу)</text>
	<text transform="matrix(1 0 0 1 787.646 153.2294)" class="st17 st18 st19">Кладовище</text>
	<text transform="matrix(1 0 0 1 787.646 192.8264)" class="st17 st18 st19">Дніпровська</text>
	<text transform="matrix(1 0 0 1 787.646 230.8264)" class="st17 st18 st19">Бєлінського</text>
	<text transform="matrix(1 0 0 1 787.646 269.8264)" class="st17 st18 st19">Руданського</text>
	<text transform="matrix(1 0 0 1 787.646 304.8264)" class="st17 st18 st19">Герцена</text>
	<text transform="matrix(1 0 0 1 787.646 342.5764)" class="st17 st18 st19">Пестеля</text>
	<text transform="matrix(1 0 0 1 787.646 361.0764)" class="st17 st18 st19">Богуна</text>
	<text transform="matrix(1 0 0 1 644.979 470.7891)" class="st17 st18 st19">Пугачова</text>
	<text transform="matrix(0 -1 1 0 692.0449 499.1592)"><tspan x="0" y="0" class="st17 st18 st19">Площа</tspan><tspan x="0" y="6" class="st17 st18 st19">Гагаріна</tspan></text>
	<text transform="matrix(0 -1 1 0 1073.5449 492.4092)" class="st17 st18 st19">музей Коцюбинського</text>
	<text transform="matrix(1 0 0 1 1085.5532 470.7893)" class="st17 st18 st19">Будинок побуту</text>
	<text transform="matrix(1 0 0 1 972.5156 473.7893)"><tspan x="0" y="0" class="st17 st18 st19">Героїв</tspan><tspan x="-16.9" y="6" class="st17 st18 st19">Чорнобиля</tspan></text>
	<text transform="matrix(1 0 0 1 1015.978 458.5393)"><tspan x="0" y="0" class="st26 st18 st19">Автовокзал</tspan><tspan x="0" y="6" class="st26 st18 st19">Центральний</tspan></text>
	<text transform="matrix(1 0 0 1 716.3716 453.9312)" class="st17 st18 st19">Грушевського</text>
	<text transform="matrix(1 0 0 1 743.6919 479.1812)"><tspan x="0" y="0" class="st17 st18 st19">Театр</tspan><tspan x="-35" y="6" class="st17 st18 st19">ім. Садовського</tspan></text>
	<text transform="matrix(0 -1 1 0 619.323 501.0667)" class="st17 st18 st19">Першотравнева</text>
	<text transform="matrix(0 -1 1 0 310.2556 490.2385)" class="st17 st18 st19">Технічний університет</text>
	<text transform="matrix(0 -1 1 0 404.9222 501.0669)" class="st17 st18 st19">Лісопарк</text>
	<text transform="matrix(1 0 0 1 604.0728 764.0419)"><tspan x="0" y="0" class="st17 st18 st19">Академіка</tspan><tspan x="0" y="9" class="st17 st18 st19">Заболотного</tspan></text>
	<text transform="matrix(1 0 0 1 681.0728 895.7086)"><tspan x="0" y="0" class="st27 st18 st28">Лікарня</tspan><tspan x="0" y="12" class="st27 st18 st28">ім. Ющенко</tspan></text>
	<text transform="matrix(1 0 0 1 391.0728 895.7087)" class="st27 st18 st28">Електромережа</text>
	<text transform="matrix(1 0 0 1 250.8638 684.9998)" class="st27 st18 st28">Вишенька</text>
	<text transform="matrix(1 0 0 1 621.8228 541.3124)" class="st27 st18 st28">Площа Гагаріна</text>
	<text transform="matrix(1 0 0 1 636.8228 714.0861)" class="st27 st18 st28">ринок «Урожай»</text>
	<text transform="matrix(1 0 0 1 800.3228 484.8124)" class="st27 st18 st28">Театральна</text>
	<text transform="matrix(1 0 0 1 595.3228 151.1458)" class="st27 st18 st28">вул. Ботанічна</text>
	<text transform="matrix(1 0 0 1 748.9897 91.0271)" class="st27 st18 st28">П’ятничани</text>
	<text transform="matrix(1 0 0 1 943.1055 116.6938)"><tspan x="0" y="0" class="st27 st18 st28">Меморіал</tspan><tspan x="-9.8" y="12" class="st27 st18 st28">Визволення</tspan></text>
	<text transform="matrix(1 0 0 1 938.9146 16.6938)" class="st27 st18 st28">Водоканал</text>
	<text transform="matrix(1 0 0 1 158.8638 625.8127)" class="st27 st18 st28">Стельмаха</text>
	<text transform="matrix(1 0 0 1 15.3638 532.0627)" class="st27 st18 st28">ТЦ «МЕТРО»</text>
	<text transform="matrix(1 0 0 1 193.6138 541.3127)" class="st27 st18 st28">Барське шосе</text>
	<text transform="matrix(1 0 0 1 90.1138 529.3127)"><tspan x="0" y="0" class="st26 st18 st28">Автовокзал</tspan><tspan x="0" y="12" class="st26 st18 st28">Західний</tspan></text>
	<g>
		<text transform="matrix(1 0 0 1 810.7397 708.7086)" class="st27 st18 st28">Свердлова</text>
	</g>
	<g>
		<text transform="matrix(1 0 0 1 888.7397 755.9586)" class="st27 st18 st28">Наливайка Площа</text>
	</g>
	<g>
		<text transform="matrix(1 0 0 1 1172.4175 472.039)"><tspan x="0" y="0" class="st27 st18 st28">площа</tspan><tspan x="0" y="12" class="st27 st18 st28">Перемоги</tspan></text>
	</g>
	<g>
		<text transform="matrix(1 0 0 1 1411.0327 502.5831)"><tspan x="0" y="0" class="st27 st18 st28">Залізничний</tspan><tspan x="0" y="12" class="st27 st18 st28">вокзал</tspan></text>
	</g>
	<g>
		<text transform="matrix(1 0 0 1 1312.314 310.9999)" class="st27 st18 st28">Муніципальний ринок</text>
	</g>
	<g>
		<text transform="matrix(1 0 0 1 1444.98 47.6666)" class="st27 st18 st28">ВПЗ</text>
	</g>
	<g>
		<text transform="matrix(1 0 0 1 1098.314 225.3332)" class="st27 st18 st28">1-й пров. Київський</text>
	</g>
	<g>
		<text transform="matrix(1 0 0 1 1340.1479 219.2499)" class="st27 st18 st28">Хутір Шевченка</text>
	</g>
	<g>
		<text transform="matrix(1 0 0 1 1639.4468 181.5832)" class="st27 st18 st28">Гонти</text>
	</g>
	<g>
		<text transform="matrix(1 0 0 1 1688.7808 254.2499)" class="st27 st18 st28">Лугова</text>
	</g>
	<g>
		<text transform="matrix(1 0 0 1 1756.9707 502.5832)"><tspan x="0" y="0" class="st27 st18 st28">Аеропорт</tspan><tspan x="-0.1" y="12" class="st27 st18 st28">«Вінниця»</tspan></text>
	</g>
	<g>
		<text transform="matrix(1 0 0 1 1698.1147 646.8453)" class="st27 st18 st28">Чехова</text>
	</g>
	<g>
		<text transform="matrix(1 0 0 1 1804.2808 674.0953)" class="st27 st18 st28">Вінницькі Хутори</text>
	</g>
	<g>
		<text transform="matrix(1 0 0 1 1744.1147 158.8293)" class="st27 st18 st28">Тяжилів (СТО)</text>
	</g>
	<text transform="matrix(1 0 0 1 513.4067 1045.042)" class="st17 st18 st28">с. Шкуринці</text>
	<text transform="matrix(1 0 0 1 423.4067 1038.7086)"><tspan x="0" y="0" class="st17 st18 st28">Аграрний</tspan><tspan x="0" y="12" class="st17 st18 st28">Університет</tspan></text>
	<text transform="matrix(1 0 0 1 323.7397 1045.0415)" class="st17 st18 st28">с. Агрошномічне</text>
	<text transform="matrix(1 0 0 1 194.0938 1017.0416)" class="st17 st18 st28">с. Пирогово</text>
	<text transform="matrix(1 0 0 1 186.1406 872.0415)" class="st17 st18 st28">Стахурського</text>
	<text transform="matrix(1 0 0 1 781.7397 927.3753)" class="st17 st18 st28">Педучилище</text>
	<text transform="matrix(1 0 0 1 657.0728 969.4998)" class="st27 st18 st28">Сабарів</text>
	<text transform="matrix(1 0 0 1 936.5728 997.4998)"><tspan x="0" y="0" class="st27 st18 st28">Будинок</tspan><tspan x="0" y="12" class="st27 st18 st28">відпочинку</tspan></text>
	<text transform="matrix(1 0 0 1 1013.5728 980.4998)" class="st27 st18 st28">Примакова</text>
	<text transform="matrix(1 0 0 1 1186.0005 980.4996)" class="st27 st18 st28">Площа шкільна</text>
	<text transform="matrix(1 0 0 1 1348.5015 1034.7917)" class="st27 st18 st28">Бучми (ліс)</text>
	<text transform="matrix(1 0 0 1 1460.7559 757.2917)"><tspan x="0" y="0" class="st27 st18 st28">Олієжиркомбінат</tspan><tspan x="11.6" y="12" class="st27 st18 st28">(Молокозавод)</tspan></text>
	<text transform="matrix(1 0 0 1 1468.9409 991.2917)" class="st27 st18 st28">Бучми </text>
	<text transform="matrix(1 0 0 1 568.3228 808.5419)" class="st17 st18 st19">Дачна</text>
	<text transform="matrix(1 0 0 1 588.3228 820.2919)" class="st17 st18 st19">Бульвар Свободи</text>
	<text transform="matrix(1 0 0 1 607.8228 839.2919)" class="st17 st18 st19">Зодчих</text>
	<text transform="matrix(1 0 0 1 542.3228 854.7919)" class="st17 st18 st19">30-річчя Перемоги</text>
	<text transform="matrix(1 0 0 1 582.0728 881.7919)" class="st17 st18 st19">ТК «Вінниця»</text>
	<text transform="matrix(1 0 0 1 518.3228 898.1459)" class="st17 st18 st19">Храм Стрітення Господнього</text>
	<text transform="matrix(1 0 0 1 477.8228 951.8959)" class="st17 st18 st19">Вінницькі МЕМ</text>
	<text transform="matrix(1 0 0 1 459.1558 976.5626)" class="st17 st18 st19">Ботанічний сад</text>
	<text transform="matrix(1 0 0 1 451.6206 990.3215)" class="st17 st18 st19">Гніванське шосе</text>
	<text transform="matrix(1 0 0 1 621.8228 791.0419)" class="st17 st18 st19">ТЦ «Поділля»</text>
	<text transform="matrix(1 0 0 1 780.3228 743.1461)" class="st17 st18 st19">Санаторна</text>
	<text transform="matrix(1 0 0 1 887.5728 721.6137)" class="st17 st18 st19">Міст</text>
	<text transform="matrix(1 0 0 1 887.5728 775.3637)" class="st17 st18 st19">Школа №19</text>
	<text transform="matrix(1 0 0 1 936.5728 706.6695)" class="st17 st18 st19">Дмитрова</text>
	<text transform="matrix(1 0 0 1 998.5884 686.9195)" class="st17 st18 st19">Судмедекспертиза</text>
	<text transform="matrix(1 0 0 1 1071.8384 661.4195)" class="st17 st18 st19">Енгельса</text>
	<text transform="matrix(1 0 0 1 780.1636 657.6461)" class="st17 st18 st19">Міліційна</text>
	<text transform="matrix(1 0 0 1 679.3228 645.0951)"><tspan x="0" y="0" class="st17 st18 st19">Лікарня</tspan><tspan x="0" y="9" class="st17 st18 st19">ім. Пирогова</tspan></text>
	<text transform="matrix(1 0 0 1 721.3228 573.5951)" class="st17 st18 st19">Зої Космодем’янської</text>
	<text transform="matrix(1 0 0 1 815.2783 612.6461)" class="st17 st18 st19">Пушкіна</text>
	<text transform="matrix(1 0 0 1 879.5645 589.1462)" class="st17 st18 st19">Пристань</text>
	<text transform="matrix(0 -1 1 0 1165.4924 594.7031)"><tspan x="0" y="0" class="st17 st18 st19">50-річчя</tspan><tspan x="0" y="9" class="st17 st18 st19">Перемоги</tspan></text>
	<text transform="matrix(1 0 0 1 973.2734 533.38)"><tspan x="0" y="0" class="st17 st18 st19">площа</tspan><tspan x="-11.7" y="9" class="st17 st18 st19">Жовтнева</tspan></text>
	<text transform="matrix(0 -1 1 0 874.6667 491.5039)" class="st17 st18 st19">Майдан Незалежності</text>
	<text transform="matrix(0 -1 1 0 892.9167 491.5039)" class="st17 st18 st19">Інтернаціональна</text>
	<text transform="matrix(0 -1 1 0 909.4167 491.5039)" class="st17 st18 st19">Соборна</text>
	<text transform="matrix(1 0 0 1 1036.6162 532.0629)"><tspan x="0" y="0" class="st17 st18 st19">Лікеро-</tspan><tspan x="-13.3" y="9" class="st17 st18 st19">горілчаний</tspan><tspan x="5.9" y="18" class="st17 st18 st19">завод</tspan></text>
	<text transform="matrix(1 0 0 1 1018.728 401.0627)" class="st17 st18 st19">Стеценка</text>
	<text transform="matrix(1 0 0 1 1018.728 363.3127)" class="st17 st18 st19">Червоноармійська</text>
	<text transform="matrix(0 -1 1 0 1049.3687 334.7375)" class="st17 st18 st19">Київська</text>
	<text transform="matrix(0 -1 1 0 1178.119 385.9314)" class="st17 st18 st19">Фрунзе</text>
	<text transform="matrix(1 0 0 1 1172.4175 436.7889)"><tspan x="0" y="0" class="st17 st18 st19">Центральний</tspan><tspan x="0" y="9" class="st17 st18 st19">стадіон</tspan></text>
	<text transform="matrix(0 -1 1 0 1225.2499 397.283)" class="st17 st18 st19">Некрасова</text>
	<text transform="matrix(0 -1 1 0 1226.2499 497.5393)" class="st17 st18 st19">Ринок-Центральний</text>
	<text transform="matrix(0 -1 1 0 1268.9999 497.5393)" class="st17 st18 st19">Папаніна</text>
	<text transform="matrix(0 -1 1 0 1265.4999 414.7146)"><tspan x="0" y="0" class="st17 st18 st19">Муніципальний</tspan><tspan x="33.2" y="9" class="st17 st18 st19">ринок</tspan></text>
	<text transform="matrix(1 0 0 1 1162.0327 316.5978)" class="st17 st18 st19">МПМ «Зоря»</text>
	<text transform="matrix(1 0 0 1 1219.5327 301.3129)" class="st17 st18 st19">Шк. -Коледж «30</text>
	<text transform="matrix(1 0 0 1 1312.314 273.7764)" class="st17 st18 st19">Гаражі</text>
	<text transform="matrix(4.489659e-011 -1 1 4.489659e-011 1325.8101 192.8264)" class="st17 st18 st19">Цимлянська</text>
	<text transform="matrix(4.489659e-011 -1 1 4.489659e-011 1359.5601 80.0764)" class="st17 st18 st19">Завод управління</text>
	<text transform="matrix(4.489659e-011 -1 1 4.489659e-011 1306.7822 80.0764)" class="st17 st18 st19">Кірова</text>
	<text transform="matrix(4.489659e-011 -1 1 4.489659e-011 1240.0322 80.0764)" class="st17 st18 st19">Енергетична</text>
	<text transform="matrix(4.489659e-011 -1 1 4.489659e-011 1181.2822 80.0764)" class="st17 st18 st19">Завод «Аграрна Фрут»</text>
	<text transform="matrix(4.489659e-011 -1 1 4.489659e-011 1121.7822 80.0764)" class="st17 st18 st19">М33</text>
	<text transform="matrix(4.489659e-011 -1 1 4.489659e-011 1027.2822 80.0764)" class="st17 st18 st19">Тарнагородського</text>
	<text transform="matrix(4.489659e-011 -1 1 4.489659e-011 1225.2494 278.3264)" class="st17 st18 st19">Некрасова</text>
	<text transform="matrix(1 0 0 1 1224.5796 183.0504)" class="st17 st18 st19">Фабрика «Рошн»</text>
	<text transform="matrix(1 0 0 1 1240.4673 132.0504)" class="st17 st18 st19">Липовецька</text>
	<text transform="matrix(4.489659e-011 -1 1 4.489659e-011 1353.9995 192.8264)" class="st17 st18 st19">Полубудкина</text>
	<text transform="matrix(4.489659e-011 -1 1 4.489659e-011 1379.9995 192.8264)" class="st17 st18 st19">Лавринова</text>
	<text transform="matrix(4.489659e-011 -1 1 4.489659e-011 1402.926 192.8264)" class="st17 st18 st19">М. Вовчко</text>
	<text transform="matrix(0 -1 1 0 987.3686 320.7375)" class="st17 st18 st19">Чорновола</text>
	<text transform="matrix(0 -1 1 0 954.1186 331.7375)" class="st17 st18 st19">Жуковського пров.</text>
	<text transform="matrix(1 0 0 1 1018.728 237.4791)" class="st17 st18 st19">Лікарня 2-га міська</text>
	<text transform="matrix(1 0 0 1 1018.728 219.25)" class="st17 st18 st19">Грибоєдова</text>
	<text transform="matrix(1 0 0 1 1018.728 196.9171)" class="st17 st18 st19">Гонти</text>
	<text transform="matrix(1 0 0 1 1018.728 175.9171)" class="st17 st18 st19">Станіславського</text>
	<text transform="matrix(1 0 0 1 1018.728 157.5837)" class="st17 st18 st19">Школа-Коледж №29</text>
	<text transform="matrix(0 -1 1 0 1123.8687 334.7375)"><tspan x="0" y="0" class="st17 st18 st19">Кооперативний</tspan><tspan x="0" y="9" class="st17 st18 st19">інститут</tspan></text>
	<text transform="matrix(1 0 0 1 1082.0527 554.8129)" class="st17 st18 st19">Ринок «Світанок»</text>
	<text transform="matrix(1 0 0 1 1160.0327 627.5629)"><tspan x="0" y="0" class="st17 st18 st19">Кондитерська</tspan><tspan x="0" y="6" class="st17 st18 st19">фабрика</tspan></text>
	<text transform="matrix(1 0 0 1 1306.7827 679.3129)" class="st17 st18 st19">Школа №24</text>
	<text transform="matrix(1 0 0 1 1306.7827 745.8996)" class="st17 st18 st19">Ясна</text>
	<text transform="matrix(1 0 0 1 1306.7827 818.3996)" class="st17 st18 st19">ров. Привокзальний</text>
	<text transform="matrix(1 0 0 1 1160.0327 653.3129)" class="st17 st18 st19">Енгельса</text>
	<text transform="matrix(1 0 0 1 1160.0327 667.5629)" class="st17 st18 st19">Школа №22</text>
	<text transform="matrix(1 0 0 1 1160.0327 681.9224)" class="st17 st18 st19">Цегельний завод</text>
	<text transform="matrix(1 0 0 1 1160.0327 697.9224)" class="st17 st18 st19">пров. 2-й Д. Нечая</text>
	<text transform="matrix(1 0 0 1 1160.0327 764.0419)"><tspan x="0" y="0" class="st17 st18 st19">Подільський</tspan><tspan x="0" y="6" class="st17 st18 st19">проектний інститут</tspan></text>
	<text transform="matrix(1 0 0 1 1160.0327 784.5419)" class="st17 st18 st19">Щорса</text>
	<text transform="matrix(1 0 0 1 1160.0327 798.2919)" class="st17 st18 st19">Московська</text>
	<text transform="matrix(1 0 0 1 1160.0327 812.4999)" class="st17 st18 st19">Д. Нечая</text>
	<text transform="matrix(1 0 0 1 1160.0327 877.4999)" class="st17 st18 st19">Дундича</text>
	<text transform="matrix(1 0 0 1 1160.0327 899.4999)"><tspan x="0" y="0" class="st17 st18 st19">Повстання Броненосця</tspan><tspan x="0" y="6" class="st17 st18 st19">«Потьомкін»</tspan></text>
	<text transform="matrix(1 0 0 1 1160.0327 921.4999)" class="st17 st18 st19">Молодогвардійська</text>
	<text transform="matrix(1 0 0 1 1346.7827 898.1458)" class="st17 st18 st19">Затонського</text>
	<text transform="matrix(1 0 0 1 1371.5327 924.3958)" class="st17 st18 st19">Трублаїні</text>
	<text transform="matrix(1 0 0 1 1392.2827 947.9998)" class="st17 st18 st19">Топольського</text>
	<text transform="matrix(1 0 0 1 1411.0327 967.7498)" class="st17 st18 st19">Блюхера</text>
	<text transform="matrix(1 0 0 1 1463.7827 947.9996)" class="st17 st18 st19">1-й пров. Блюхера</text>
	<text transform="matrix(4.489659e-011 -1 1 4.489659e-011 1565.5323 1042.6768)" class="st17 st18 st19">Вінницькі Хутори</text>
	<text transform="matrix(1 0 0 1 1541.0327 921.5001)" class="st17 st18 st19">Церква</text>
	<text transform="matrix(1 0 0 1 1619.5327 895.7088)" class="st17 st18 st19">Озеро</text>
	<text transform="matrix(1 0 0 1 1628.9995 824.4588)" class="st17 st18 st19">Ю. Курія</text>
	<text transform="matrix(1 0 0 1 1610.3511 760.2088)" class="st17 st18 st19">Молокозавод</text>
	<text transform="matrix(4.489659e-011 -1 1 4.489659e-011 1651.4503 646.549)" class="st17 st18 st19">Чехова</text>
	<text transform="matrix(4.489659e-011 -1 1 4.489659e-011 1552.2003 648.197)" class="st17 st18 st19">Іванова</text>
	<text transform="matrix(1 0 0 1 1501.4175 559.106)" class="st17 st18 st19">Школа №13</text>
	<text transform="matrix(1 0 0 1 1501.4175 520.106)" class="st17 st18 st19">Школа №12</text>
	<text transform="matrix(1 0 0 1 1501.4175 488.1059)" class="st17 st18 st19">Фурманова</text>
	<text transform="matrix(1 0 0 1 1564.3921 436.789)" class="st17 st18 st19">Ватутіна</text>
	<text transform="matrix(4.489659e-011 -1 1 4.489659e-011 1623.1437 499.1594)" class="st17 st18 st19">пров. Карла Маркса</text>
	<text transform="matrix(1 0 0 1 1680.6851 419.5264)" class="st17 st18 st19">Промислова</text>
	<text transform="matrix(1 0 0 1 1664.98 350.5264)"><tspan x="0" y="0" class="st17 st18 st19">Вінницький</tspan><tspan x="-22.9" y="6" class="st17 st18 st19">інструментальний</tspan><tspan x="20.5" y="12" class="st17 st18 st19">завод</tspan></text>
	<text transform="matrix(1 0 0 1 1746.4351 273.7764)" class="st17 st18 st19">Якіра</text>
	<text transform="matrix(1 0 0 1 1746.4351 213.0264)" class="st17 st18 st19">Уборевича</text>
	<text transform="matrix(4.489659e-011 -1 1 4.489659e-011 1694.184 158.8293)" class="st17 st18 st19">Промислова</text>
	<text transform="matrix(1 0 0 1 1746.4351 306.5264)" class="st17 st18 st19">Ринок «Мрія»</text>
	<g>
		<text transform="matrix(1 0 0 1 1771.4351 346.9431)" class="st29 st18 st28">Автостанція «Східна»</text>
	</g>
	<text transform="matrix(1 0 0 1 1680.6851 469.0264)" class="st17 st18 st19">Залізничний переїзд</text>
	<text transform="matrix(1 0 0 1 1680.6851 527.2559)" class="st17 st18 st19">пров К. Маркса</text>
	<text transform="matrix(1 0 0 1 1680.6851 562.0059)"><tspan x="0" y="0" class="st17 st18 st19">Вінницький</tspan><tspan x="0" y="6" class="st17 st18 st19">авіаційний</tspan><tspan x="0" y="12" class="st17 st18 st19">завод (ВАЗ)</tspan></text>
	<text transform="matrix(4.489659e-011 -1 1 4.489659e-011 1779.011 685)" class="st17 st18 st19">Немирівське шосе</text>
	<text transform="matrix(4.489659e-011 -1 1 4.489659e-011 1504.2003 670.2766)" class="st17 st18 st19">Карла Маркса</text>
	<text transform="matrix(4.489659e-011 -1 1 4.489659e-011 1351.2003 666.0925)" class="st17 st18 st19">Зої Ткаченко</text>
	<text transform="matrix(4.489659e-011 -1 1 4.489659e-011 1282.4503 671.7004)" class="st17 st18 st19">Привокзальна</text>
	<text transform="matrix(4.489659e-011 -1 1 4.489659e-011 1219.5328 672.1642)" class="st17 st18 st19">Ленінградська</text>
	<text transform="matrix(1 0 0 1 1620.1831 686.9193)" class="st17 st18 st19">ТЦ «ГРОШ»</text>
	<text transform="matrix(1 0 0 1 1549.5327 671.9193)"><tspan x="0" y="0" class="st17 st18 st19">1-й роїзд</tspan><tspan x="0" y="6" class="st17 st18 st19">Чехова</tspan></text>
	<text transform="matrix(4.489659e-011 -1 1 4.489659e-011 1116.1823 941.4539)" class="st17 st18 st19">Тимощука</text>
	<text transform="matrix(4.489659e-011 -1 1 4.489659e-011 1136.6823 941.4539)" class="st17 st18 st19">Завод «ЗБК»</text>
	<text transform="matrix(4.489659e-011 -1 1 4.489659e-011 1045.1823 864.2039)" class="st17 st18 st19">Петровського</text>
	<text transform="matrix(1 0 0 1 887.5728 826.3926)" class="st17 st18 st19">Маяковського</text>
	<text transform="matrix(1 0 0 1 887.5728 856.8926)" class="st17 st18 st19">Лікарня №3</text>
	<text transform="matrix(1 0 0 1 887.5728 885.3926)" class="st17 st18 st19">Рильского</text>
	<text transform="matrix(1 0 0 1 887.5728 914.3926)" class="st17 st18 st19">Українська</text>
	<text transform="matrix(1 0 0 1 887.5728 944.1426)" class="st17 st18 st19">Смірнова</text>
	<text transform="matrix(1 0 0 1 1093.3887 578.8129)" class="st17 st18 st19">Островського</text>
	<text transform="matrix(1 0 0 1 1037.9746 620.5629)" class="st17 st18 st19">Нансена</text>
	<text transform="matrix(1 0 0 1 827.7461 576.8961)" class="st17 st18 st19">Свердлова</text>
	<text transform="matrix(0.5337 -0.8457 0.8457 0.5337 729.1652 774.099)" class="st17 st18 st19">Скалецького</text>
	<g>
		<path id="SVGID_x5F_1_x5F_" class="st30" d="M530.7,444.3v-4.5c0-28.5,23.1-51.5,51.5-51.5h14"/>
		<text>		<textPath  xlink:href="#SVGID_x5F_1_x5F_" startOffset="35.7066%">
<tspan  class="st23 st15 st16">вул. Генерала Арабея</tspan>		</textPath>
</text>
	</g>
</g>
</svg>
