<?xml version="1.0" encoding="utf-8"?>
<!-- Generator: Adobe Illustrator 21.1.0, SVG Export Plug-In . SVG Version: 6.00 Build 0)  -->
<svg version="1.1"
	 id="Capa_1" inkscape:version="0.92.1 r15371" sodipodi:docname="car.svg" xmlns:cc="http://creativecommons.org/ns#" xmlns:dc="http://purl.org/dc/elements/1.1/" xmlns:inkscape="http://www.inkscape.org/namespaces/inkscape" xmlns:rdf="http://www.w3.org/1999/02/22-rdf-syntax-ns#" xmlns:sodipodi="http://sodipodi.sourceforge.net/DTD/sodipodi-0.dtd" xmlns:svg="http://www.w3.org/2000/svg"
	 xmlns="http://www.w3.org/2000/svg" xmlns:xlink="http://www.w3.org/1999/xlink" x="0px" y="0px" viewBox="0 0 612 612"
	 style="enable-background:new 0 0 612 612;" xml:space="preserve">
<style type="text/css">
	.st0{fill:url(#path2_1_);}
</style>
<sodipodi:namedview  bordercolor="#666666" borderopacity="1" gridtolerance="10" guidetolerance="10" id="namedview37" inkscape:current-layer="Capa_1" inkscape:cx="306" inkscape:cy="306" inkscape:pageopacity="0" inkscape:pageshadow="2" inkscape:window-height="480" inkscape:window-maximized="0" inkscape:window-width="743" inkscape:window-x="0" inkscape:window-y="0" inkscape:zoom="0.38562092" objecttolerance="10" pagecolor="#ffffff" showgrid="false">
	</sodipodi:namedview>
<g id="g4">
	<linearGradient id="path2_1_" gradientUnits="userSpaceOnUse" x1="72.1324" y1="523.3627" x2="469.1538" y2="126.3412">
		<stop  offset="0" style="stop-color:#43AA26"/>
		<stop  offset="0.995" style="stop-color:#9ABF61"/>
	</linearGradient>
	<path id="path2" class="st0" d="M21.5,377.5V117.1c0-14.5,11.7-26.2,26.2-26.2h260.3c14.5,0,26.2,11.7,26.2,26.2v260.4
		c0,4.8-3.9,8.7-8.7,8.7H30.2C25.4,386.3,21.5,382.3,21.5,377.5z M231.6,466.7c0,30-24.3,54.3-54.3,54.3S123,496.7,123,466.7
		c0-30,24.3-54.3,54.3-54.3S231.6,436.7,231.6,466.7z M204.5,466.7c0-15-12.2-27.2-27.2-27.2s-27.2,12.2-27.2,27.2
		s12.2,27.2,27.2,27.2S204.5,481.7,204.5,466.7z M130.5,412.4H8.7c-4.8,0-8.7,3.9-8.7,8.7v26.5c0,4.8,3.9,8.7,8.7,8.7h97.6
		C108.9,438.9,117.7,423.4,130.5,412.4z M515.9,466.7c0,30-24.3,54.3-54.3,54.3c-30,0-54.3-24.3-54.3-54.3c0-30,24.3-54.3,54.3-54.3
		C491.6,412.4,515.9,436.7,515.9,466.7z M488.8,466.7c0-15-12.2-27.2-27.2-27.2c-15,0-27.2,12.2-27.2,27.2s12.2,27.2,27.2,27.2
		S488.8,481.7,488.8,466.7z M612,421.1v26.5c0,4.8-3.9,8.7-8.7,8.7h-70.7c-5.1-34.7-34.9-61.4-71-61.4c-36.1,0-65.9,26.7-71,61.4
		H248.3c-2.5-17.5-11.4-32.9-24.2-44h135V162.6c0-9.6,7.8-17.5,17.5-17.5H459c23.2,0,44.9,11.5,57.9,30.8l53.2,78.7
		c7.8,11.5,12,25.2,12,39.1v118.7h21.3C608.1,412.4,612,416.3,612,421.1z M523.4,256.6l-42.5-60.4c-1.6-2.3-4.3-3.7-7.1-3.7h-66.3
		c-4.8,0-8.7,3.9-8.7,8.7v60.4c0,4.8,3.9,8.7,8.7,8.7h108.8C523.3,270.4,527.5,262.4,523.4,256.6z"/>
</g>
<g id="g6">
</g>
<g id="g8">
</g>
<g id="g10">
</g>
<g id="g12">
</g>
<g id="g14">
</g>
<g id="g16">
</g>
<g id="g18">
</g>
<g id="g20">
</g>
<g id="g22">
</g>
<g id="g24">
</g>
<g id="g26">
</g>
<g id="g28">
</g>
<g id="g30">
</g>
<g id="g32">
</g>
<g id="g34">
</g>
</svg>
