<?xml version="1.0" encoding="UTF-8" standalone="no"?>
<!-- Generator: Adobe Illustrator 16.0.0, SVG Export Plug-In . SVG Version: 6.00 Build 0)  -->

<svg
   xmlns:dc="http://purl.org/dc/elements/1.1/"
   xmlns:cc="http://creativecommons.org/ns#"
   xmlns:rdf="http://www.w3.org/1999/02/22-rdf-syntax-ns#"
   xmlns:svg="http://www.w3.org/2000/svg"
   xmlns="http://www.w3.org/2000/svg"
   xmlns:sodipodi="http://sodipodi.sourceforge.net/DTD/sodipodi-0.dtd"
   xmlns:inkscape="http://www.inkscape.org/namespaces/inkscape"
   version="1.1"
   id="Capa_1"
   x="0px"
   y="0px"
   width="306px"
   height="306px"
   viewBox="0 0 306 306"
   style="enable-background:new 0 0 306 306;"
   xml:space="preserve"
   sodipodi:docname="arrow-green.svg"
   inkscape:version="0.92.1 r15371"><metadata
   id="metadata42"><rdf:RDF><cc:Work
       rdf:about=""><dc:format>image/svg+xml</dc:format><dc:type
         rdf:resource="http://purl.org/dc/dcmitype/StillImage" /><dc:title /></cc:Work></rdf:RDF></metadata><defs
   id="defs40" /><sodipodi:namedview
   pagecolor="#ffffff"
   bordercolor="#43AA26"
   borderopacity="1"
   objecttolerance="10"
   gridtolerance="10"
   guidetolerance="10"
   inkscape:pageopacity="0"
   inkscape:pageshadow="2"
   inkscape:window-width="1366"
   inkscape:window-height="705"
   id="namedview38"
   showgrid="false"
   inkscape:zoom="1.0907007"
   inkscape:cx="-10.314653"
   inkscape:cy="170.09559"
   inkscape:window-x="-8"
   inkscape:window-y="-8"
   inkscape:window-maximized="1"
   inkscape:current-layer="Capa_1"
   fill="#43AA26" />
<g
   id="g5">
	<g
   id="chevron-right">
		<polygon
   points="94.35,0 58.65,35.7 175.95,153 58.65,270.3 94.35,306 247.35,153   "
   id="polygon2" />
	</g>
</g>
<g
   id="g7">
</g>
<g
   id="g9">
</g>
<g
   id="g11">
</g>
<g
   id="g13">
</g>
<g
   id="g15">
</g>
<g
   id="g17">
</g>
<g
   id="g19">
</g>
<g
   id="g21">
</g>
<g
   id="g23">
</g>
<g
   id="g25">
</g>
<g
   id="g27">
</g>
<g
   id="g29">
</g>
<g
   id="g31">
</g>
<g
   id="g33">
</g>
<g
   id="g35">
</g>
<path
   style="opacity:1;fill:#43aa26;fill-opacity:1;stroke:#ffffff;stroke-width:0;stroke-miterlimit:4;stroke-dasharray:none;stroke-opacity:1"
   d="m 117.38755,211.64785 58.73497,-58.7353 -40.62743,-40.62743 -40.627431,-40.627431 h 35.527781 35.52778 l 40.62728,40.627761 40.62727,40.62776 -58.73531,58.73497 -58.73531,58.73498 H 94.179865 58.652579 Z"
   id="path5113"
   inkscape:connector-curvature="0" /><path
   style="opacity:1;fill:#43aa26;fill-opacity:1;stroke:#ffffff;stroke-width:0;stroke-miterlimit:4;stroke-dasharray:none;stroke-opacity:1"
   d="M 77.135913,53.46769 59.14967,35.472839 76.655907,17.975608 94.162144,0.4783774 129.65423,35.970459 165.14631,71.462541 H 130.13423 95.122155 Z"
   id="path5115"
   inkscape:connector-curvature="0" /><path
   style="opacity:1;fill:#43aa26;fill-opacity:1;stroke:#ffffff;stroke-width:0;stroke-miterlimit:4;stroke-dasharray:none;stroke-opacity:1"
   d="M 117.98459,211.33337 176.49244,152.82285 136.13645,112.46684 95.780445,72.110846 h 35.009765 35.00977 l 40.51548,40.519364 40.51548,40.51937 -58.34447,58.34716 -58.34445,58.34716 H 94.80938 59.476745 Z"
   id="path5117"
   inkscape:connector-curvature="0" /><path
   style="opacity:1;fill:#43aa26;fill-opacity:1;stroke:#ffffff;stroke-width:0;stroke-miterlimit:4;stroke-dasharray:none;stroke-opacity:1"
   d="m 113.1672,71.624963 c 9.92,-0.100702 25.96555,-0.100621 35.65678,1.79e-4 9.69123,0.100801 1.57487,0.183194 -18.03636,0.183095 -19.61123,-9.8e-5 -27.54042,-0.08257 -17.62042,-0.183274 z"
   id="path5119"
   inkscape:connector-curvature="0" /><path
   style="opacity:1;fill:#43aa26;fill-opacity:1;stroke:#ffffff;stroke-width:0;stroke-miterlimit:4;stroke-dasharray:none;stroke-opacity:1"
   d="M 77.784175,53.467648 59.79789,35.472755 76.980056,18.299764 94.162223,1.1267743 129.33011,36.294658 164.49799,71.462541 H 130.13422 95.77046 Z"
   id="path5121"
   inkscape:connector-curvature="0" /><path
   style="opacity:1;fill:#43aa26;fill-opacity:1;stroke:#ffffff;stroke-width:0;stroke-miterlimit:4;stroke-dasharray:none;stroke-opacity:1"
   d="M 77.784218,53.46769 59.797975,35.472839 77.14358,18.136159 94.489184,0.79947688 129.81626,36.131009 165.14333,71.462541 H 130.45689 95.77046 Z"
   id="path5123"
   inkscape:connector-curvature="0" /><path
   style="opacity:1;fill:#43aa26;fill-opacity:1;stroke:#ffffff;stroke-width:0;stroke-miterlimit:4;stroke-dasharray:none;stroke-opacity:1"
   d="M 77.626601,53.533912 C 67.999271,43.690855 60.041544,35.432855 59.942764,35.182803 59.843984,34.93275 63.782438,30.848969 68.694883,26.107732 73.607328,21.366496 81.421642,13.733501 86.060025,9.1455213 l 8.433423,-8.34177999 35.324942,35.32939969 35.32494,35.3294 -35.00625,-0.01608 -35.006241,-0.01608 z"
   id="path5125"
   inkscape:connector-curvature="0" /><path
   style="opacity:1;fill:#43aa26;fill-opacity:1;stroke:#ffffff;stroke-width:0;stroke-miterlimit:4;stroke-dasharray:none;stroke-opacity:1"
   d="m 95.454709,71.948769 c 1.55e-4,-0.267425 15.972901,-0.419826 35.494981,-0.338668 19.52209,0.08116 29.80583,0.226248 22.85276,0.322421 -32.5856,0.450713 -58.347998,0.457887 -58.347741,0.01625 z"
   id="path5127"
   inkscape:connector-curvature="0" /><path
   style="opacity:1;fill:#43aa26;fill-opacity:1;stroke:#ffffff;stroke-width:0;stroke-miterlimit:4;stroke-dasharray:none;stroke-opacity:1"
   d="m 117.98525,211.33272 58.5085,-58.51118 -40.20294,-40.19327 -40.202935,-40.193272 4.707925,-0.36943 4.70792,-0.36943 L 100.2361,71.579339 94.968487,71.462541 77.383349,53.609389 C 67.711523,43.790156 59.798211,35.546514 59.798211,35.290183 c 0,-0.25633 7.731569,-8.193495 17.181264,-17.638142 L 94.160739,0.47995225 129.49642,35.80917 l 35.33568,35.329218 -10.86334,0.347991 -10.86335,0.347991 11.34729,0.138238 11.34728,0.138238 40.51548,40.519364 40.51548,40.51937 -58.34447,58.34716 -58.34445,58.34716 H 94.80938 59.476745 Z"
   id="path5129"
   inkscape:connector-curvature="0" /><path
   style="opacity:1;fill:#43aa26;fill-opacity:1;stroke:#ffffff;stroke-width:0;stroke-miterlimit:4;stroke-dasharray:none;stroke-opacity:1"
   d="m 117.66079,211.65717 c 32.00122,-32.0027 58.18403,-58.47874 58.18403,-58.83566 0,-0.35692 -17.94648,-18.5899 -39.88107,-40.51773 l -39.881064,-39.868782 2.441449,-0.394228 2.441445,-0.394234 -2.921789,-0.09199 -2.921793,-0.092 L 77.460104,53.791885 C 67.746063,44.073024 59.798211,35.829381 59.798211,35.472679 c 0,-0.356703 7.731569,-8.375991 17.181264,-17.820638 L 94.160739,0.47995225 129.49811,35.80917 l 35.33738,35.329218 -6.97521,0.358078 -6.9752,0.358072 7.64637,0.128157 7.64637,0.128151 40.16613,39.972434 c 22.09137,21.98483 40.16613,40.29196 40.16613,40.68249 0,0.39054 -26.18403,26.89288 -58.18673,58.89409 L 130.13663,269.8439 H 94.806693 59.47676 Z"
   id="path5131"
   inkscape:connector-curvature="0" /><path
   style="opacity:1;fill:#43aa26;fill-opacity:1;stroke:#ffffff;stroke-width:0;stroke-miterlimit:4;stroke-dasharray:none;stroke-opacity:1"
   d="m 117.77578,211.51701 58.25177,-58.32689 -6.5327,-6.98985 C 165.90186,142.35586 147.92095,124.18905 129.53726,105.8296 103.10366,79.430865 96.348719,72.355172 97.242364,72.00123 98.129299,71.649946 98.022784,71.543871 96.74718,71.50811 95.511421,71.473491 90.889886,67.22833 77.460104,53.791885 67.746063,44.073024 59.798211,35.829381 59.798211,35.472679 c 0,-0.356703 7.731569,-8.375991 17.181264,-17.820638 L 94.160739,0.47995225 129.4998,35.80917 l 35.33906,35.329218 -5.03198,0.367343 -5.03197,0.367342 5.8367,0.118887 5.83671,0.118886 40.03087,40.034784 c 22.01699,22.01913 40.03089,40.32626 40.03089,40.68249 0,0.35625 -26.18403,26.83053 -58.18673,58.83174 L 130.13663,269.8439 H 94.830315 59.524003 Z"
   id="path5133"
   inkscape:connector-curvature="0" /><path
   style="opacity:1;fill:#43aa26;fill-opacity:1;stroke:#ffffff;stroke-width:0;stroke-miterlimit:4;stroke-dasharray:none;stroke-opacity:1"
   d="m 59.852237,269.56826 c 0.14857,-0.15161 26.341357,-26.40917 58.206193,-58.35014 L 175.9945,153.14361 159.75421,136.45244 C 150.82205,127.2723 132.85624,109.12407 119.8302,96.123048 104.02881,80.352022 96.409002,72.318018 96.935269,71.983616 c 0.523042,-0.33236 0.350465,-0.504563 -0.512241,-0.51115 -1.326297,-0.01012 -36.624817,-34.706245 -36.624817,-35.999787 0,-0.356703 7.731569,-8.375991 17.181264,-17.820638 L 94.160739,0.47995225 129.50187,35.80917 l 35.34112,35.329218 -3.41328,0.380555 -3.41328,0.380562 4.21594,0.105667 4.21595,0.105674 40.03087,40.034784 c 22.01699,22.01913 40.03089,40.32626 40.03089,40.68249 0,0.35625 -26.18403,26.83053 -58.18673,58.83174 L 130.13663,269.8439 H 94.859368 c -19.402492,0 -35.155701,-0.12404 -35.007131,-0.27564 z"
   id="path5135"
   inkscape:connector-curvature="0" /><path
   style="opacity:1;fill:#43aa26;fill-opacity:1;stroke:#ffffff;stroke-width:0;stroke-miterlimit:4;stroke-dasharray:none;stroke-opacity:1"
   d="m 60.072792,269.35767 c 0.269876,-0.26743 26.451958,-26.5366 58.182408,-58.37594 l 57.69172,-57.88971 -29.82864,-30.27978 C 129.71253,106.15836 111.7636,88.029912 106.23176,82.526801 100.69992,77.023695 96.321075,72.282964 96.500996,71.991843 c 0.17992,-0.291115 -0.05675,-0.529302 -0.525936,-0.529302 -0.98343,0 -36.176849,-35.011515 -36.176849,-35.989862 0,-0.356703 7.731569,-8.375991 17.181264,-17.820638 L 94.160739,0.47995225 129.50274,35.80917 l 35.342,35.329218 -2.44169,0.394228 c -2.35143,0.37966 -2.32179,0.397638 0.80178,0.486229 l 3.24349,0.092 40.03087,40.034785 c 22.01699,22.01913 40.03089,40.32626 40.03089,40.68249 0,0.35625 -26.18403,26.83053 -58.18673,58.83174 L 130.13663,269.8439 H 94.859368 c -19.402492,0 -35.056451,-0.21881 -34.786576,-0.48623 z"
   id="path5137"
   inkscape:connector-curvature="0" /><path
   style="opacity:1;fill:#43aa26;fill-opacity:1;stroke:#ffffff;stroke-width:0;stroke-miterlimit:4;stroke-dasharray:none;stroke-opacity:1"
   d="m 60.072792,269.35767 c 0.269876,-0.26743 26.451958,-26.5366 58.182408,-58.37594 l 57.69172,-57.88971 -29.82864,-30.27978 C 129.71253,106.15836 111.7636,88.029912 106.23176,82.526801 100.69992,77.023695 96.321075,72.282964 96.500996,71.991843 c 0.17992,-0.291115 -0.05675,-0.529302 -0.525936,-0.529302 -0.98343,0 -36.176849,-35.011515 -36.176849,-35.989862 0,-0.356703 7.731569,-8.375991 17.181264,-17.820638 L 94.160739,0.47995225 129.50274,35.80917 l 35.342,35.329218 -2.44169,0.394228 c -2.35143,0.37966 -2.32179,0.397638 0.80178,0.486229 l 3.24349,0.092 40.03087,40.034785 c 22.01699,22.01913 40.03089,40.32626 40.03089,40.68249 0,0.35625 -26.18403,26.83053 -58.18673,58.83174 L 130.13663,269.8439 H 94.859368 c -19.402492,0 -35.056451,-0.21881 -34.786576,-0.48623 z"
   id="path5139"
   inkscape:connector-curvature="0" /><path
   style="opacity:1;fill:#43aa26;fill-opacity:1;stroke:#ffffff;stroke-width:0;stroke-miterlimit:4;stroke-dasharray:none;stroke-opacity:1"
   d="m 117.488,211.5494 c 31.79842,-32.06197 57.86422,-58.45778 57.92399,-58.65735 0.0598,-0.19956 -14.76243,-15.3208 -32.93823,-33.60275 C 124.29796,101.00736 98.260409,74.816644 84.612533,61.087713 70.964656,47.358783 59.798211,35.833095 59.798211,35.475075 c 0,-0.358021 7.731569,-8.378387 17.181264,-17.823034 L 94.160739,0.47995225 129.49786,35.80917 c 31.15786,31.150892 35.16393,35.379079 33.87276,35.750824 -1.17473,0.338221 -1.01518,0.43439 0.80667,0.486229 2.11241,0.0601 5.06703,2.860892 42.3019,40.099407 22.01699,22.01913 40.03089,40.32626 40.03089,40.68249 0,0.35625 -26.18403,26.83053 -58.18673,58.83174 L 130.13663,269.8439 H 94.90466 59.672694 Z"
   id="path5141"
   inkscape:connector-curvature="0" /><path
   style="opacity:1;fill:#43aa26;fill-opacity:1;stroke:#ffffff;stroke-width:0;stroke-miterlimit:4;stroke-dasharray:none;stroke-opacity:1"
   d="m 79.57449,249.58436 c 11.050923,-11.14274 37.12295,-37.36332 57.93783,-58.26795 20.81489,-20.90464 37.73607,-38.29497 37.60265,-38.64518 -0.13344,-0.35021 -26.06136,-26.63859 -57.61761,-58.41862 C 85.941114,62.472584 60.043886,36.102319 59.94797,35.652023 59.852053,35.201727 67.510687,27.103799 76.967157,17.656628 L 94.160739,0.47995225 129.46992,35.784673 c 23.49485,23.491882 35.04548,35.472284 34.52106,35.805519 -0.49229,0.312827 -0.17902,0.504524 0.83461,0.510728 1.27622,0.0078 10.17079,8.55882 41.6536,40.04471 22.01699,22.01913 40.03089,40.32626 40.03089,40.68249 0,0.35625 -26.18403,26.83053 -58.18673,58.83174 L 130.13663,269.8439 H 94.809264 59.481902 Z"
   id="path5143"
   inkscape:connector-curvature="0" /><path
   style="opacity:1;fill:#43aa26;fill-opacity:1;stroke:#ffffff;stroke-width:0;stroke-miterlimit:4;stroke-dasharray:none;stroke-opacity:1"
   d="m 69.206741,259.97908 c 5.344059,-5.42565 30.948549,-31.19118 56.898859,-57.25673 25.95032,-26.06555 47.6249,-48.02367 48.16573,-48.79582 0.9535,-1.36131 -0.76298,-3.16432 -56.58282,-59.434734 C 86.027132,62.574841 60.043886,36.094743 59.94797,35.647136 59.852053,35.199528 67.510687,27.103799 76.967157,17.656628 L 94.160739,0.47995225 129.45477,35.769534 c 19.41172,19.409269 35.14779,35.526217 34.96904,35.815446 -0.17875,0.289228 0.20364,0.525866 0.84976,0.525866 1.20971,0 81.23651,79.515304 81.23651,80.717274 0,0.35625 -26.18403,26.83053 -58.18673,58.83174 L 130.13663,269.8439 H 94.813449 59.490271 Z"
   id="path5145"
   inkscape:connector-curvature="0" /><path
   style="opacity:1;fill:#43aa26;fill-opacity:1;stroke:#ffffff;stroke-width:0;stroke-miterlimit:4;stroke-dasharray:none;stroke-opacity:1"
   d="m 63.055322,266.11614 c 1.945334,-2.05026 27.073672,-27.35847 55.840748,-56.24046 28.76709,-28.882 53.08738,-53.46595 54.04511,-54.63102 1.65976,-2.01907 1.69213,-2.19339 0.69103,-3.72126 -0.57765,-0.88162 -26.35369,-27.13871 -57.28007,-58.349077 C 85.425764,61.963953 60.043886,36.069344 59.94797,35.630749 59.852053,35.192154 67.510687,27.103799 76.967157,17.656628 L 94.160739,0.47995225 129.45477,35.769534 c 19.41172,19.409269 35.14779,35.526217 34.96904,35.815446 -0.17875,0.289228 0.20364,0.525866 0.84976,0.525866 1.22136,0 81.23651,79.521364 81.23651,80.735184 0,0.36609 -26.11861,26.84037 -58.04135,58.83174 L 130.42739,269.8439 H 94.972872 59.518351 Z"
   id="path5147"
   inkscape:connector-curvature="0" /><path
   style="opacity:1;fill:#43aa26;fill-opacity:1;stroke:#ffffff;stroke-width:0;stroke-miterlimit:4;stroke-dasharray:none;stroke-opacity:1"
   d="m 59.798211,269.41746 c 0,-0.23454 25.81875,-26.30721 57.374999,-57.93925 31.55625,-31.63205 57.375,-57.85969 57.375,-58.28365 0,-1.08166 -10.23454,-11.60849 -65.75599,-67.633912 C 82.0238,58.549244 60.043886,36.085473 59.94797,35.641155 59.852053,35.196837 67.485746,27.128726 76.911734,17.712021 L 94.049893,0.59073913 95.886976,2.2097451 c 1.010395,0.8904533 17.007424,16.9365119 35.548944,35.6579079 18.54153,18.721396 34.00449,34.08487 34.36213,34.141046 1.13138,0.17772 80.88461,80.301031 80.6305,81.004661 -0.13345,0.3695 -26.16498,26.80753 -57.84786,58.75118 L 130.97546,269.8439 H 95.386835 c -19.573743,0 -35.588624,-0.1919 -35.588624,-0.42644 z"
   id="path5149"
   inkscape:connector-curvature="0" /><path
   style="opacity:1;fill:#43aa26;fill-opacity:1;stroke:#ffffff;stroke-width:0;stroke-miterlimit:4;stroke-dasharray:none;stroke-opacity:1"
   d="m 59.798211,269.41746 c 0,-0.23454 25.81875,-26.30721 57.374999,-57.93925 31.55625,-31.63205 57.375,-57.85969 57.375,-58.28365 0,-1.08166 -10.23454,-11.60849 -65.75599,-67.633912 C 82.0238,58.549244 60.043886,36.085473 59.94797,35.641155 59.852053,35.196837 67.485746,27.128726 76.911734,17.712021 L 94.049893,0.59073913 95.886976,2.2097451 c 1.010395,0.8904533 17.007424,16.9365119 35.548944,35.6579079 18.54153,18.721396 34.00449,34.08487 34.36213,34.141046 1.13138,0.17772 80.88461,80.301031 80.6305,81.004661 -0.13345,0.3695 -26.16498,26.80753 -57.84786,58.75118 L 130.97546,269.8439 H 95.386835 c -19.573743,0 -35.588624,-0.1919 -35.588624,-0.42644 z"
   id="path5151"
   inkscape:connector-curvature="0" /><path
   style="opacity:1;fill:#43aa26;fill-opacity:1;stroke:#ffffff;stroke-width:0;stroke-miterlimit:4;stroke-dasharray:none;stroke-opacity:1"
   d="m 59.798211,269.41746 c 0,-0.23454 25.81875,-26.30721 57.374999,-57.93925 31.55625,-31.63205 57.375,-57.85969 57.375,-58.28365 0,-1.08166 -10.23454,-11.60849 -65.75599,-67.633912 C 82.0238,58.549244 60.043886,36.085473 59.94797,35.641155 59.852053,35.196837 67.485746,27.128726 76.911734,17.712021 L 94.049893,0.59073913 95.886976,2.2097451 c 1.010395,0.8904533 17.007424,16.9365119 35.548944,35.6579079 18.54153,18.721396 34.00449,34.08487 34.36213,34.141046 1.13138,0.17772 80.88461,80.301031 80.6305,81.004661 -0.13345,0.3695 -26.16498,26.80753 -57.84786,58.75118 L 130.97546,269.8439 H 95.386835 c -19.573743,0 -35.588624,-0.1919 -35.588624,-0.42644 z"
   id="path5153"
   inkscape:connector-curvature="0" /><path
   style="opacity:1;fill:#43aa26;fill-opacity:1;stroke:#ffffff;stroke-width:0;stroke-miterlimit:4;stroke-dasharray:none;stroke-opacity:1"
   d="m 59.798211,269.35555 c 0,-0.26858 16.795765,-17.26228 37.323923,-37.76377 20.528156,-20.50148 46.373656,-46.53858 57.434446,-57.86021 l 20.11053,-20.58479 -2.6083,-3.07834 C 170.62425,148.37534 144.7792,122.04654 114.62536,91.559998 84.471531,61.073452 59.799763,35.836112 59.799212,35.477021 59.798021,34.699955 93.602709,0.79728639 94.37872,0.79728639 c 0.795929,0 152.12164,151.26456361 152.12688,152.06539361 0.003,0.37739 -25.98584,26.85255 -57.75177,58.83369 L 130.99758,269.8439 H 95.397897 c -19.579827,0 -35.599686,-0.21976 -35.599686,-0.48835 z"
   id="path5155"
   inkscape:connector-curvature="0" /><path
   style="opacity:1;fill:#43aa26;fill-opacity:1;stroke:#ffffff;stroke-width:0;stroke-miterlimit:4;stroke-dasharray:none;stroke-opacity:1"
   d="m 59.798211,269.35521 c 0,-0.26877 14.46153,-14.92857 32.136732,-32.57733 17.675207,-17.64875 43.525177,-43.68821 57.444397,-57.86546 L 174.687,153.1356 172.25872,150.38699 C 170.92317,148.87526 145.14613,122.62105 114.9764,92.044295 84.806682,61.467547 60.122364,36.007075 60.122364,35.46547 c 0,-1.087216 33.261154,-34.66818361 34.338016,-34.66818361 0.907321,0 152.0497,151.18926361 152.0497,152.09686361 0,0.39356 -25.99255,26.86825 -57.76121,58.83266 l -57.7612,58.11709 H 95.39294 c -19.577101,0 -35.594729,-0.21991 -35.594729,-0.48869 z"
   id="path5157"
   inkscape:connector-curvature="0" /><path
   style="opacity:1;fill:#43aa26;fill-opacity:1;stroke:#ffffff;stroke-width:0;stroke-miterlimit:4;stroke-dasharray:none;stroke-opacity:1"
   d="m 59.798211,269.46117 c 0,-0.2105 25.672882,-26.22649 57.050849,-57.8133 34.32551,-34.55398 57.05085,-57.90768 57.05085,-58.62832 0,-1.22195 -4.52345,-5.87927 -75.36547,-77.595911 C 77.229514,53.855685 59.798211,35.884662 59.798211,35.488034 c 0,-0.998895 33.536399,-34.69074761 34.530685,-34.69074761 1.012452,0 152.181184,151.11364361 152.181184,152.12572361 0,0.40944 -25.9957,26.88413 -57.76823,58.83266 L 130.97362,269.8439 H 95.385918 c -19.573239,0 -35.587707,-0.17223 -35.587707,-0.38273 z"
   id="path5159"
   inkscape:connector-curvature="0" /><path
   style="opacity:1;fill:#43aa26;fill-opacity:1;stroke:#ffffff;stroke-width:0;stroke-miterlimit:4;stroke-dasharray:none;stroke-opacity:1"
   d="M 76.978296,287.99644 59.483064,270.4922 H 94.482533 129.482 l -17.49523,17.50424 c -9.62238,9.62733 -17.499284,17.50424 -17.504237,17.50424 -0.005,0 -7.881859,-7.87691 -17.504237,-17.50424 z"
   id="path5161"
   inkscape:connector-curvature="0" /><path
   style="opacity:1;fill:#43aa26;fill-opacity:1;stroke:#ffffff;stroke-width:0;stroke-miterlimit:4;stroke-dasharray:none;stroke-opacity:1"
   d="M 77.302449,287.67229 60.131539,270.4922 h 34.350994 34.350997 l -17.17091,17.18009 c -9.444,9.44904 -17.17504,17.18008 -17.180087,17.18008 -0.005,0 -7.736084,-7.73104 -17.180084,-17.18008 z"
   id="path5163"
   inkscape:connector-curvature="0" /><path
   style="opacity:1;fill:#43aa26;fill-opacity:1;stroke:#ffffff;stroke-width:0;stroke-miterlimit:4;stroke-dasharray:none;stroke-opacity:1"
   d="M 77.302449,287.67229 60.131539,270.4922 h 34.675147 34.675144 l -17.17091,17.18009 c -9.444,9.44904 -17.320904,17.18008 -17.504234,17.18008 -0.18333,0 -8.060237,-7.73104 -17.504237,-17.18008 z"
   id="path5165"
   inkscape:connector-curvature="0" /><path
   style="opacity:1;fill:#43aa26;fill-opacity:1;stroke:#ffffff;stroke-width:0;stroke-miterlimit:4;stroke-dasharray:none;stroke-opacity:1"
   d="m 77.607665,287.97241 c -9.260348,-9.28398 -16.958553,-17.01501 -17.107123,-17.18008 -0.14857,-0.16507 15.311442,-0.30013 34.355582,-0.30013 h 34.625706 l -17.17091,17.18009 c -9.444,9.44904 -17.327361,17.18008 -17.518583,17.18008 -0.191221,0 -7.924324,-7.59598 -17.184672,-16.87996 z"
   id="path5167"
   inkscape:connector-curvature="0" /><path
   style="opacity:1;fill:#43aa26;fill-opacity:1;stroke:#ffffff;stroke-width:0;stroke-miterlimit:4;stroke-dasharray:none;stroke-opacity:1"
   d="m 77.279547,288.22362 c -9.258166,-9.14582 -16.833031,-16.87685 -16.833031,-17.18009 0,-0.30323 15.532947,-0.55133 34.517659,-0.55133 h 34.517655 l -17.17091,17.18009 c -9.444,9.44904 -17.402079,17.18008 -17.684624,17.18008 -0.282545,0 -8.088582,-7.48294 -17.346749,-16.62875 z"
   id="path5169"
   inkscape:connector-curvature="0" /><path
   style="opacity:1;fill:#43aa26;fill-opacity:1;stroke:#ffffff;stroke-width:0;stroke-miterlimit:4;stroke-dasharray:none;stroke-opacity:1"
   d="m 77.135697,288.15393 c -9.179049,-9.18415 -16.689181,-16.91519 -16.689181,-17.18009 0,-0.2649 15.532947,-0.48164 34.517659,-0.48164 h 34.517655 l -17.17091,17.18009 c -9.444,9.44904 -17.466813,17.18008 -17.828475,17.18008 -0.361663,0 -8.167699,-7.5143 -17.346748,-16.69844 z"
   id="path5171"
   inkscape:connector-curvature="0" /><path
   style="opacity:1;fill:#43aa26;fill-opacity:1;stroke:#ffffff;stroke-width:0;stroke-miterlimit:4;stroke-dasharray:none;stroke-opacity:1"
   d="m 77.135697,288.15393 c -9.179049,-9.18415 -16.689181,-16.91519 -16.689181,-17.18009 0,-0.2649 15.532947,-0.48164 34.517659,-0.48164 h 34.517655 l -17.17091,17.18009 c -9.444,9.44904 -17.466813,17.18008 -17.828475,17.18008 -0.361663,0 -8.167699,-7.5143 -17.346748,-16.69844 z"
   id="path5173"
   inkscape:connector-curvature="0" /><path
   style="opacity:1;fill:#43aa26;fill-opacity:1;stroke:#ffffff;stroke-width:0;stroke-miterlimit:4;stroke-dasharray:none;stroke-opacity:1"
   d="m 77.135697,288.15393 c -9.179049,-9.18415 -16.689181,-16.91519 -16.689181,-17.18009 0,-0.2649 15.532947,-0.48164 34.517659,-0.48164 h 34.517655 l -17.17091,17.18009 c -9.444,9.44904 -17.466813,17.18008 -17.828475,17.18008 -0.361663,0 -8.167699,-7.5143 -17.346748,-16.69844 z"
   id="path5175"
   inkscape:connector-curvature="0" /><path
   style="opacity:1;fill:#43aa26;fill-opacity:1;stroke:#ffffff;stroke-width:0;stroke-miterlimit:4;stroke-dasharray:none;stroke-opacity:1"
   d="m 77.135697,288.15393 c -9.179049,-9.18415 -16.689181,-16.91519 -16.689181,-17.18009 0,-0.2649 15.532947,-0.48164 34.517659,-0.48164 h 34.517655 l -17.17091,17.18009 c -9.444,9.44904 -17.466813,17.18008 -17.828475,17.18008 -0.361663,0 -8.167699,-7.5143 -17.346748,-16.69844 z"
   id="path5177"
   inkscape:connector-curvature="0" /><path
   style="opacity:1;fill:#43aa26;fill-opacity:1;stroke:#ffffff;stroke-width:0;stroke-miterlimit:4;stroke-dasharray:none;stroke-opacity:1"
   d="m 77.135697,288.15393 c -9.179049,-9.18415 -16.689181,-16.91519 -16.689181,-17.18009 0,-0.2649 15.532947,-0.48164 34.517659,-0.48164 h 34.517655 l -17.17091,17.18009 c -9.444,9.44904 -17.466813,17.18008 -17.828475,17.18008 -0.361663,0 -8.167699,-7.5143 -17.346748,-16.69844 z"
   id="path5179"
   inkscape:connector-curvature="0" /><path
   style="opacity:1;fill:#43aa26;fill-opacity:1;stroke:#ffffff;stroke-width:0;stroke-miterlimit:4;stroke-dasharray:none;stroke-opacity:1"
   d="m 77.135697,288.15393 c -9.179049,-9.18415 -16.689181,-16.91519 -16.689181,-17.18009 0,-0.2649 15.532947,-0.48164 34.517659,-0.48164 h 34.517655 l -17.17091,17.18009 c -9.444,9.44904 -17.466813,17.18008 -17.828475,17.18008 -0.361663,0 -8.167699,-7.5143 -17.346748,-16.69844 z"
   id="path5181"
   inkscape:connector-curvature="0" /><path
   style="opacity:1;fill:#43aa26;fill-opacity:1;stroke:#ffffff;stroke-width:0;stroke-miterlimit:4;stroke-dasharray:none;stroke-opacity:1"
   d="m 77.135697,288.15393 c -9.179049,-9.18415 -16.689181,-16.91519 -16.689181,-17.18009 0,-0.2649 15.532947,-0.48164 34.517659,-0.48164 h 34.517655 l -17.17091,17.18009 c -9.444,9.44904 -17.466813,17.18008 -17.828475,17.18008 -0.361663,0 -8.167699,-7.5143 -17.346748,-16.69844 z"
   id="path5183"
   inkscape:connector-curvature="0" /><path
   style="opacity:1;fill:#43aa26;fill-opacity:1;stroke:#ffffff;stroke-width:0;stroke-miterlimit:4;stroke-dasharray:none;stroke-opacity:1"
   d="m 77.135697,288.15393 c -9.179049,-9.18415 -16.689181,-16.91519 -16.689181,-17.18009 0,-0.2649 15.532947,-0.48164 34.517659,-0.48164 h 34.517655 l -17.17091,17.18009 c -9.444,9.44904 -17.466813,17.18008 -17.828475,17.18008 -0.361663,0 -8.167699,-7.5143 -17.346748,-16.69844 z"
   id="path5185"
   inkscape:connector-curvature="0" /><path
   style="opacity:1;fill:#43aa26;fill-opacity:1;stroke:#ffffff;stroke-width:0;stroke-miterlimit:4;stroke-dasharray:none;stroke-opacity:1"
   d="m 77.00764,288.03347 c -9.254624,-9.26398 -16.667011,-17.00318 -16.471971,-17.19822 0.19504,-0.19504 15.725767,-0.27908 34.512727,-0.18676 l 34.158114,0.16786 -16.86309,16.85594 c -9.2747,9.27076 -17.233463,16.93442 -17.686141,17.03035 -0.452678,0.0959 -8.395015,-7.40519 -17.649639,-16.66917 z"
   id="path5187"
   inkscape:connector-curvature="0" /><path
   style="opacity:1;fill:#43aa26;fill-opacity:1;stroke:#ffffff;stroke-width:0;stroke-miterlimit:4;stroke-dasharray:none;stroke-opacity:1"
   d="m 77.00764,288.03347 c -9.254624,-9.26398 -16.667011,-17.00318 -16.471971,-17.19822 0.19504,-0.19504 15.749071,-0.27908 34.564513,-0.18676 l 34.209898,0.16786 -16.92814,16.85594 c -9.31047,9.27076 -17.29254,16.93442 -17.737924,17.03035 -0.445383,0.0959 -8.381752,-7.40519 -17.636376,-16.66917 z"
   id="path5189"
   inkscape:connector-curvature="0" /><path
   style="opacity:1;fill:#43aa26;fill-opacity:1;stroke:#ffffff;stroke-width:0;stroke-miterlimit:4;stroke-dasharray:none;stroke-opacity:1"
   d="m 77.140372,288.16628 c -9.18162,-9.19094 -16.693856,-16.92754 -16.693856,-17.19244 0,-0.2649 15.462077,-0.48164 34.36017,-0.48164 20.049304,0 34.360174,0.24417 34.360174,0.58624 0,0.75073 -33.563341,33.39156 -34.57451,33.6242 -0.416967,0.0959 -8.270357,-7.34543 -17.451978,-16.53636 z"
   id="path5191"
   inkscape:connector-curvature="0" /><path
   style="opacity:1;fill:#43aa26;fill-opacity:1;stroke:#ffffff;stroke-width:0;stroke-miterlimit:4;stroke-dasharray:none;stroke-opacity:1"
   d="m 77.140372,288.16628 c -9.18162,-9.19094 -16.693856,-16.92754 -16.693856,-17.19244 0,-0.2649 15.462077,-0.48164 34.36017,-0.48164 20.428714,0 34.360174,0.24131 34.360174,0.59515 0,0.7741 -33.516435,33.38634 -34.547294,33.61529 -0.431936,0.0959 -8.297573,-7.34543 -17.479194,-16.53636 z"
   id="path5193"
   inkscape:connector-curvature="0" /><path
   style="opacity:1;fill:#43aa26;fill-opacity:1;stroke:#ffffff;stroke-width:0;stroke-miterlimit:4;stroke-dasharray:none;stroke-opacity:1"
   d=""
   id="path5195"
   inkscape:connector-curvature="0" /><path
   style="opacity:1;fill:#43aa26;fill-opacity:1;stroke:#ffffff;stroke-width:0;stroke-miterlimit:4;stroke-dasharray:none;stroke-opacity:1"
   d="M 76.599055,288.1846 C 64.684888,276.27025 58.968018,270.47809 59.122688,270.47809 c 0.152682,0 6.126656,5.89717 17.791896,17.56315 l 17.562032,17.56315 4.613812,-4.61276 c 2.537592,-2.53701 4.664912,-4.61276 4.727372,-4.61276 0.0625,0 -2.02622,2.14026 -4.641515,4.75612 -2.615294,2.61587 -4.781162,4.75612 -4.813041,4.75612 -0.03188,0 -8.025762,-7.96793 -17.764189,-17.70651 z"
   id="path5197"
   inkscape:connector-curvature="0" /><path
   style="opacity:1;fill:#43aa26;fill-opacity:1;stroke:#ffffff;stroke-width:0;stroke-miterlimit:4;stroke-dasharray:none;stroke-opacity:1"
   d=""
   id="path5199"
   inkscape:connector-curvature="0" /><path
   style="opacity:1;fill:#43aa26;fill-opacity:1;stroke:#ffffff;stroke-width:0;stroke-miterlimit:4;stroke-dasharray:none;stroke-opacity:1"
   d="m 61.245455,272.4872 c -0.531071,-0.53384 -0.939828,-0.99638 -0.90835,-1.02785 0.03148,-0.0315 0.517626,0.4053 1.080329,0.97062 0.562703,0.56532 0.971461,1.02786 0.90835,1.02786 -0.06311,0 -0.549258,-0.43678 -1.080329,-0.97063 z"
   id="path5201"
   inkscape:connector-curvature="0" /><path
   style="opacity:1;fill:#43aa26;fill-opacity:1;stroke:#ffffff;stroke-width:0;stroke-miterlimit:4;stroke-dasharray:none;stroke-opacity:1"
   d="m 61.016089,272.25851 c -0.07916,-0.0954 -0.181107,-0.15044 -0.226557,-0.12235 -0.04545,0.0281 -0.308205,-0.17877 -0.583902,-0.45968 -0.275697,-0.28092 -0.447947,-0.51076 -0.382778,-0.51076 0.06517,0 0.240133,0.12949 0.388807,0.28774 0.148675,0.15826 0.301202,0.23777 0.338949,0.1767 0.03775,-0.0611 0.21378,0.0709 0.391183,0.29319 0.30663,0.38428 0.376445,0.69922 0.0743,0.33516 z"
   id="path5203"
   inkscape:connector-curvature="0" /><path
   style="opacity:1;fill:#43aa26;fill-opacity:1;stroke:#ffffff;stroke-width:0;stroke-miterlimit:4;stroke-dasharray:none;stroke-opacity:1"
   d="m 77.058237,288.52842 c -9.485111,-9.48645 -17.188225,-17.24809 -17.118029,-17.24809 0.0702,0 0.19183,0.0774 0.270299,0.17191 0.07847,0.0945 0.224452,0.17191 0.324408,0.17191 0.118691,0 0.01147,-0.1735 -0.309095,-0.50013 -0.477053,-0.48608 -0.483353,-0.50212 -0.224421,-0.57146 0.422267,-0.11307 69.430671,-0.0871 69.430671,0.0261 0,0.0553 -0.0774,0.16477 -0.17191,0.24324 -0.0946,0.0785 -0.17191,0.20982 -0.17191,0.2919 0,0.38137 -12.28397,12.63326 -22.51993,22.46113 -1.76492,1.69456 -5.20726,5.06767 -7.649644,7.4958 l -4.4407,4.41479 -8.662128,-8.65046 c -4.76417,-4.75776 -11.683599,-11.69324 -15.376508,-15.41218 -3.692909,-3.71894 -7.330035,-7.38057 -8.082503,-8.13697 -0.752467,-0.75639 -1.305814,-1.24633 -1.229659,-1.08875 0.07615,0.15758 7.623951,7.7774 16.772881,16.93292 9.14893,9.15553 16.582538,16.64641 16.519127,16.64641 -0.06341,0 -7.875837,-7.76164 -17.360949,-17.24808 z"
   id="path5205"
   inkscape:connector-curvature="0" /><path
   style="opacity:1;fill:#43aa26;fill-opacity:1;stroke:#ffffff;stroke-width:0;stroke-miterlimit:4;stroke-dasharray:none;stroke-opacity:1"
   d=""
   id="path5207"
   inkscape:connector-curvature="0" /><path
   style="opacity:1;fill:#43aa26;fill-opacity:1;stroke:#ffffff;stroke-width:0;stroke-miterlimit:4;stroke-dasharray:none;stroke-opacity:1"
   d="m 59.40827,270.87921 c -0.081,-0.0976 -0.121481,-0.20323 -0.08996,-0.23475 0.03152,-0.0315 0.123573,0.0226 0.204571,0.12015 0.081,0.0976 0.121481,0.20323 0.08997,0.23475 -0.03152,0.0315 -0.123573,-0.0226 -0.204571,-0.12015 z"
   id="path5209"
   inkscape:connector-curvature="0" /><path
   style="opacity:1;fill:#43aa26;fill-opacity:1;stroke:#ffffff;stroke-width:0;stroke-miterlimit:4;stroke-dasharray:none;stroke-opacity:1"
   d="m 77.057476,288.52842 c -9.486291,-9.48645 -17.200354,-17.24809 -17.142363,-17.24809 0.05799,0 0.200067,0.0856 0.315724,0.19031 0.394995,0.35746 0.342222,0.0603 -0.0704,-0.39642 -0.337518,-0.3736 -0.378737,-0.46836 -0.228747,-0.52592 0.292796,-0.11236 69.50038,-0.0821 69.50038,0.0304 0,0.0553 -0.0774,0.16477 -0.17191,0.24324 -0.0946,0.0785 -0.17191,0.20932 -0.17191,0.29078 0,0.3951 -10.21003,10.59954 -21.43174,21.42002 -2.74162,2.64359 -6.82889,6.6399 -9.082825,8.88069 l -4.098059,4.07416 -8.391215,-8.36497 c -4.615168,-4.60073 -6.79171,-6.74043 -4.836762,-4.7549 2.76246,2.80568 7.716062,7.81189 13.220272,13.36068 0.02626,0.0265 4.58e-4,0.0481 -0.05745,0.0481 -0.05786,0 -7.866708,-7.76164 -17.352999,-17.24808 z m -0.573026,-1.00313 c 0,-0.0159 -3.361084,-3.38104 -7.469075,-7.47799 -4.107991,-4.09696 -6.390068,-6.32186 -5.071282,-4.94423 2.02165,2.11186 12.408004,12.4512 12.507812,12.4512 0.0179,0 0.03254,-0.013 0.03254,-0.029 z"
   id="path5211"
   inkscape:connector-curvature="0" /><path
   style="opacity:1;fill:#43aa26;fill-opacity:1;stroke:#ffffff;stroke-width:0;stroke-miterlimit:4;stroke-dasharray:none;stroke-opacity:1"
   d="m 77.088801,288.56251 c -9.467638,-9.4677 -17.190267,-17.23762 -17.161398,-17.26649 0.02887,-0.0289 0.147117,0.0331 0.262774,0.13782 0.396528,0.35885 0.381981,0.19027 -0.02457,-0.28468 -0.223615,-0.26125 -0.379307,-0.51911 -0.345983,-0.57303 0.08075,-0.13065 69.612446,-0.12812 69.612446,0.003 0,0.0553 -0.0774,0.16477 -0.17191,0.24324 -0.0946,0.0785 -0.17191,0.2122 -0.17191,0.29718 0,0.39935 -9.9095,10.30157 -21.83269,21.81663 -2.83626,2.73918 -6.87275,6.68317 -8.969966,8.76443 l -3.813123,3.78409 -6.554065,-6.52962 c -3.604737,-3.5913 -6.530344,-6.49417 -6.50135,-6.45084 0.02899,0.0433 2.979448,3.01313 6.556564,6.59955 3.577116,3.58642 6.503847,6.55506 6.503847,6.59697 0,0.0419 -0.03933,0.0762 -0.08739,0.0762 -0.04806,0 -7.833641,-7.74629 -17.301279,-17.21399 z m -1.406588,-1.83954 c 0,-0.016 -2.694655,-2.71064 -5.988123,-5.98812 l -5.988123,-5.95906 5.959058,5.98812 c 5.539076,5.56609 6.017188,6.03959 6.017188,5.95906 z"
   id="path5213"
   inkscape:connector-curvature="0" /><path
   style="opacity:1;fill:#43aa26;fill-opacity:1;stroke:#ffffff;stroke-width:0;stroke-miterlimit:4;stroke-dasharray:none;stroke-opacity:1"
   d="m 77.079142,288.56581 c -9.465964,-9.46587 -17.185736,-17.23579 -17.155047,-17.26648 0.03069,-0.0307 0.159257,0.0378 0.285709,0.15227 0.349625,0.31641 0.274431,0.0816 -0.116425,-0.36356 -0.190487,-0.21695 -0.316374,-0.44294 -0.27975,-0.5022 0.08633,-0.13968 69.618441,-0.14684 69.618441,-0.007 0,0.0553 -0.0774,0.16477 -0.17191,0.24324 -0.0946,0.0785 -0.17191,0.21303 -0.17191,0.29904 0,0.37735 -9.67765,10.07485 -20.39973,20.44157 -2.04857,1.98067 -6.08809,5.92044 -8.976724,8.75504 l -5.252056,5.15381 -5.520836,-5.49174 -5.520838,-5.49174 5.529703,5.55879 c 3.041336,3.05734 5.529702,5.59727 5.529702,5.64431 0,0.047 -0.04218,0.0855 -0.09374,0.0855 -0.05156,0 -7.838623,-7.74481 -17.304588,-17.21069 z M 74.30695,285.3335 c 0,-0.0238 -0.09025,-0.11405 -0.200559,-0.20056 -0.18177,-0.14255 -0.185824,-0.1385 -0.04327,0.0433 0.149717,0.19091 0.243829,0.25162 0.243829,0.15729 z m -0.45842,-0.44445 c 0,-0.0161 -1.714781,-1.7309 -3.810624,-3.81062 l -3.810624,-3.78133 3.781321,3.81063 c 3.514248,3.54148 3.839927,3.86219 3.839927,3.78132 z"
   id="path5215"
   inkscape:connector-curvature="0" /><path
   style="opacity:1;fill:#43aa26;fill-opacity:1;stroke:#ffffff;stroke-width:0;stroke-miterlimit:4;stroke-dasharray:none;stroke-opacity:1"
   d="m 77.079142,288.56581 c -9.465964,-9.46587 -17.185736,-17.23579 -17.155047,-17.26648 0.03069,-0.0307 0.159257,0.0378 0.285709,0.15227 0.349625,0.31641 0.274431,0.0816 -0.116425,-0.36356 -0.190487,-0.21695 -0.316374,-0.44294 -0.27975,-0.5022 0.08633,-0.13968 69.618441,-0.14684 69.618441,-0.007 0,0.0553 -0.0774,0.16477 -0.17191,0.24324 -0.0946,0.0785 -0.17191,0.21303 -0.17191,0.29904 0,0.37735 -9.67765,10.07485 -20.39973,20.44157 -2.04857,1.98067 -6.08809,5.92044 -8.976724,8.75504 l -5.252056,5.15381 -5.520836,-5.49174 -5.520838,-5.49174 5.529703,5.55879 c 3.041336,3.05734 5.529702,5.59727 5.529702,5.64431 0,0.047 -0.04218,0.0855 -0.09374,0.0855 -0.05156,0 -7.838623,-7.74481 -17.304588,-17.21069 z M 74.30695,285.3335 c 0,-0.0238 -0.09025,-0.11405 -0.200559,-0.20056 -0.18177,-0.14255 -0.185824,-0.1385 -0.04327,0.0433 0.149717,0.19091 0.243829,0.25162 0.243829,0.15729 z m -0.45842,-0.44445 c 0,-0.0161 -1.714781,-1.7309 -3.810624,-3.81062 l -3.810624,-3.78133 3.781321,3.81063 c 3.514248,3.54148 3.839927,3.86219 3.839927,3.78132 z"
   id="path5217"
   inkscape:connector-curvature="0" /><path
   style="opacity:1;fill:#43aa26;fill-opacity:1;stroke:#ffffff;stroke-width:0;stroke-miterlimit:4;stroke-dasharray:none;stroke-opacity:1"
   d="m 77.079142,288.56581 c -9.465964,-9.46587 -17.185736,-17.23579 -17.155047,-17.26648 0.03069,-0.0307 0.159257,0.0378 0.285709,0.15227 0.349625,0.31641 0.274431,0.0816 -0.116425,-0.36356 -0.190487,-0.21695 -0.316374,-0.44294 -0.27975,-0.5022 0.08633,-0.13968 69.618441,-0.14684 69.618441,-0.007 0,0.0553 -0.0774,0.16477 -0.17191,0.24324 -0.0946,0.0785 -0.17191,0.21303 -0.17191,0.29904 0,0.37735 -9.67765,10.07485 -20.39973,20.44157 -2.04857,1.98067 -6.08809,5.92044 -8.976724,8.75504 l -5.252056,5.15381 -5.520836,-5.49174 -5.520838,-5.49174 5.529703,5.55879 c 3.041336,3.05734 5.529702,5.59727 5.529702,5.64431 0,0.047 -0.04218,0.0855 -0.09374,0.0855 -0.05156,0 -7.838623,-7.74481 -17.304588,-17.21069 z M 74.30695,285.3335 c 0,-0.0238 -0.09025,-0.11405 -0.200559,-0.20056 -0.18177,-0.14255 -0.185824,-0.1385 -0.04327,0.0433 0.149717,0.19091 0.243829,0.25162 0.243829,0.15729 z m -0.45842,-0.44445 c 0,-0.0161 -1.714781,-1.7309 -3.810624,-3.81062 l -3.810624,-3.78133 3.781321,3.81063 c 3.514248,3.54148 3.839927,3.86219 3.839927,3.78132 z"
   id="path5219"
   inkscape:connector-curvature="0" /><path
   style="opacity:1;fill:#43aa26;fill-opacity:1;stroke:#ffffff;stroke-width:0;stroke-miterlimit:4;stroke-dasharray:none;stroke-opacity:1"
   d="m 77.060284,288.5706 c -9.460856,-9.46325 -17.175225,-17.23224 -17.143041,-17.26442 0.03218,-0.0322 0.137119,0.007 0.233192,0.0865 0.271016,0.22492 0.206083,0.0154 -0.112602,-0.36333 -0.158004,-0.18778 -0.258105,-0.38862 -0.222447,-0.44632 0.06897,-0.11159 69.616684,-0.15364 69.616684,-0.0421 0,0.57416 -8.00131,8.70898 -19.76941,20.0993 -3.15164,3.05046 -7.07114,6.86517 -8.70999,8.47711 -1.638858,1.61195 -3.766208,3.7046 -4.727446,4.65034 l -1.747707,1.71952 -1.747753,-1.71767 -1.747753,-1.71766 1.74773,1.77772 c 0.961252,0.97775 1.74773,1.8158 1.74773,1.86233 0,0.0465 -0.04852,0.0846 -0.107816,0.0846 -0.0593,0 -7.848516,-7.74265 -17.309371,-17.2059 z"
   id="path5221"
   inkscape:connector-curvature="0" /><path
   style="opacity:1;fill:#43aa26;fill-opacity:1;stroke:#ffffff;stroke-width:0;stroke-miterlimit:4;stroke-dasharray:none;stroke-opacity:1"
   d="m 77.060284,288.5706 c -9.460856,-9.46325 -17.175225,-17.23224 -17.143041,-17.26442 0.03218,-0.0322 0.137119,0.007 0.233192,0.0865 0.271016,0.22492 0.206083,0.0154 -0.112602,-0.36333 -0.158004,-0.18778 -0.258105,-0.38862 -0.222447,-0.44632 0.06897,-0.11159 69.616684,-0.15364 69.616684,-0.0421 0,0.57416 -8.00131,8.70898 -19.76941,20.0993 -3.15164,3.05046 -7.07114,6.86517 -8.70999,8.47711 -1.638858,1.61195 -3.766208,3.7046 -4.727446,4.65034 l -1.747707,1.71952 -1.747753,-1.71767 -1.747753,-1.71766 1.74773,1.77772 c 0.961252,0.97775 1.74773,1.8158 1.74773,1.86233 0,0.0465 -0.04852,0.0846 -0.107816,0.0846 -0.0593,0 -7.848516,-7.74265 -17.309371,-17.2059 z"
   id="path5223"
   inkscape:connector-curvature="0" /><path
   style="opacity:1;fill:#43aa26;fill-opacity:1;stroke:#ffffff;stroke-width:0;stroke-miterlimit:4;stroke-dasharray:none;stroke-opacity:1"
   d="m 77.060284,288.5706 c -9.460856,-9.46325 -17.175225,-17.23224 -17.143041,-17.26442 0.03218,-0.0322 0.137119,0.007 0.233192,0.0865 0.271016,0.22492 0.206083,0.0154 -0.112602,-0.36333 -0.158004,-0.18778 -0.258105,-0.38862 -0.222447,-0.44632 0.06897,-0.11159 69.616684,-0.15364 69.616684,-0.0421 0,0.57416 -8.00131,8.70898 -19.76941,20.0993 -3.15164,3.05046 -7.07114,6.86517 -8.70999,8.47711 -1.638858,1.61195 -3.766208,3.7046 -4.727446,4.65034 l -1.747707,1.71952 -1.747753,-1.71767 -1.747753,-1.71766 1.74773,1.77772 c 0.961252,0.97775 1.74773,1.8158 1.74773,1.86233 0,0.0465 -0.04852,0.0846 -0.107816,0.0846 -0.0593,0 -7.848516,-7.74265 -17.309371,-17.2059 z"
   id="path5225"
   inkscape:connector-curvature="0" /><path
   style="opacity:1;fill:#43aa26;fill-opacity:1;stroke:#ffffff;stroke-width:0;stroke-miterlimit:4;stroke-dasharray:none;stroke-opacity:1"
   d="m 77.060284,288.5706 c -9.460856,-9.46325 -17.175225,-17.23224 -17.143041,-17.26442 0.03218,-0.0322 0.137119,0.007 0.233192,0.0865 0.271016,0.22492 0.206083,0.0154 -0.112602,-0.36333 -0.158004,-0.18778 -0.258105,-0.38862 -0.222447,-0.44632 0.06897,-0.11159 69.616684,-0.15364 69.616684,-0.0421 0,0.57416 -8.00131,8.70898 -19.76941,20.0993 -3.15164,3.05046 -7.07114,6.86517 -8.70999,8.47711 -1.638858,1.61195 -3.766208,3.7046 -4.727446,4.65034 l -1.747707,1.71952 -1.747753,-1.71767 -1.747753,-1.71766 1.74773,1.77772 c 0.961252,0.97775 1.74773,1.8158 1.74773,1.86233 0,0.0465 -0.04852,0.0846 -0.107816,0.0846 -0.0593,0 -7.848516,-7.74265 -17.309371,-17.2059 z"
   id="path5227"
   inkscape:connector-curvature="0" /><path
   style="opacity:1;fill:#43aa26;fill-opacity:1;stroke:#ffffff;stroke-width:0;stroke-miterlimit:4;stroke-dasharray:none;stroke-opacity:1"
   d="m 77.060284,288.5706 c -9.460856,-9.46325 -17.175225,-17.23224 -17.143041,-17.26442 0.03218,-0.0322 0.137119,0.007 0.233192,0.0865 0.271016,0.22492 0.206083,0.0154 -0.112602,-0.36333 -0.158004,-0.18778 -0.258105,-0.38862 -0.222447,-0.44632 0.06897,-0.11159 69.616684,-0.15364 69.616684,-0.0421 0,0.57416 -8.00131,8.70898 -19.76941,20.0993 -3.15164,3.05046 -7.07114,6.86517 -8.70999,8.47711 -1.638858,1.61195 -3.766208,3.7046 -4.727446,4.65034 l -1.747707,1.71952 -1.747753,-1.71767 -1.747753,-1.71766 1.74773,1.77772 c 0.961252,0.97775 1.74773,1.8158 1.74773,1.86233 0,0.0465 -0.04852,0.0846 -0.107816,0.0846 -0.0593,0 -7.848516,-7.74265 -17.309371,-17.2059 z"
   id="path5229"
   inkscape:connector-curvature="0" /><path
   style="opacity:1;fill:#43aa26;fill-opacity:1;stroke:#ffffff;stroke-width:0;stroke-miterlimit:4;stroke-dasharray:none;stroke-opacity:1"
   d="M 80.180392,291.71586 C 64.100365,275.64392 59.725897,271.22022 60.009948,271.31841 c 0.267208,0.0924 0.253102,-0.0247 -0.04066,-0.33737 -0.13267,-0.14122 -0.206985,-0.31216 -0.165145,-0.37986 0.08925,-0.1444 69.627927,-0.17996 69.627927,-0.0356 0,0.38731 -1.77181,2.27263 -7.78536,8.28412 -3.81778,3.81647 -8.77223,8.71458 -11.0099,10.88467 -2.23767,2.17009 -6.44082,6.26938 -9.34033,9.10953 -2.899512,2.84015 -5.620382,5.49309 -6.046379,5.89543 l -0.774539,0.73152 -0.314211,-0.27653 -0.314211,-0.27652 0.315165,0.34967 c 0.333475,0.36998 0.388239,0.50903 0.200482,0.50903 -0.06307,0 -6.445153,-6.32729 -14.182397,-14.06064 z"
   id="path5231"
   inkscape:connector-curvature="0" /><path
   style="opacity:1;fill:#43aa26;fill-opacity:1;stroke:#ffffff;stroke-width:0;stroke-miterlimit:4;stroke-dasharray:none;stroke-opacity:1"
   d="m 58.910246,270.4512 c -0.07277,-0.0463 15.855125,-0.0724 35.395317,-0.0579 19.540197,0.0144 31.015037,0.0394 25.499667,0.0555 -26.265978,0.0765 -60.776418,0.0779 -60.894984,0.002 z"
   id="path5233"
   inkscape:connector-curvature="0" /><path
   style="opacity:1;fill:#43aa26;fill-opacity:1;stroke:#ffffff;stroke-width:0;stroke-miterlimit:4;stroke-dasharray:none;stroke-opacity:1"
   d="M 82.563538,294.13112 C 69.633856,281.25196 59.69806,271.19824 60.0159,271.31588 c 0.222542,0.0824 0.184151,-0.0453 -0.120565,-0.4008 -0.09114,-0.10633 -0.131821,-0.24816 -0.09041,-0.31516 0.08854,-0.14326 69.627145,-0.17756 69.627145,-0.0343 0,0.38872 -1.78634,2.28806 -7.89952,8.39928 -3.88106,3.8798 -8.93886,8.88028 -11.23956,11.11217 -2.3007,2.23189 -5.70096,5.55561 -7.55613,7.38606 -6.361714,6.27691 -8.167707,7.98528 -8.363034,7.91098 -0.146545,-0.0557 -0.154413,-0.0409 -0.03961,0.0747 0.171137,0.1724 0.186216,0.32768 0.03182,0.32768 -0.06129,0 -5.372414,-5.24042 -11.802497,-11.64538 z"
   id="path5235"
   inkscape:connector-curvature="0" /><path
   style="opacity:1;fill:#43aa26;fill-opacity:1;stroke:#ffffff;stroke-width:0;stroke-miterlimit:4;stroke-dasharray:none;stroke-opacity:1"
   d="M 77.017274,288.57601 C 64.326898,275.87789 59.86874,271.34989 59.985683,271.27762 c 0.130816,-0.0808 0.122312,-0.13779 -0.04882,-0.32689 -0.113976,-0.12594 -0.173347,-0.28381 -0.131935,-0.35081 0.08854,-0.14326 69.627142,-0.17756 69.627142,-0.0343 0,0.39116 -1.80118,2.30466 -8.0131,8.51283 -3.94466,3.94226 -9.10606,9.047 -11.46979,11.34386 -2.36374,2.29686 -6.47387,6.32539 -9.13363,8.95228 -2.659759,2.6269 -5.189974,5.0809 -5.622697,5.45333 -0.432723,0.37243 -0.766409,0.73823 -0.741524,0.81289 0.02488,0.0747 -0.01985,0.13573 -0.09941,0.13573 -0.07956,0 -7.880149,-7.74022 -17.334647,-17.20049 z"
   id="path5237"
   inkscape:connector-curvature="0" /><path
   style="opacity:1;fill:#43aa26;fill-opacity:1;stroke:#ffffff;stroke-width:0;stroke-miterlimit:4;stroke-dasharray:none;stroke-opacity:1"
   d="m 74.97504,270.39214 c 6.008891,-0.0164 15.807639,-0.0164 21.774993,1e-5 5.967357,0.0164 1.05099,0.0298 -10.925257,0.0298 -11.976246,0 -16.858628,-0.0134 -10.849736,-0.0298 z"
   id="path5239"
   inkscape:connector-curvature="0" /><path
   style="opacity:1;fill:#43aa26;fill-opacity:1;stroke:#ffffff;stroke-width:0;stroke-miterlimit:4;stroke-dasharray:none;stroke-opacity:1"
   d="m 77.013902,288.57607 c -12.694056,-12.70413 -17.145374,-17.22605 -17.028309,-17.2984 0.130943,-0.0809 0.122472,-0.13776 -0.04873,-0.32694 -0.113976,-0.12594 -0.173347,-0.28381 -0.131935,-0.35081 0.09155,-0.14814 69.627142,-0.17498 69.627142,-0.0269 0,0.53012 -5.69494,6.36044 -17.07618,17.48213 -3.87652,3.78812 -9.21426,9.02948 -11.86164,11.64748 -2.647383,2.618 -5.084177,4.98633 -5.4151,5.26295 -0.330922,0.27663 -0.601677,0.57224 -0.601677,0.65693 0,0.0847 -0.06227,0.15396 -0.138381,0.15396 -0.07611,0 -7.872444,-7.74019 -17.325188,-17.20043 z"
   id="path5241"
   inkscape:connector-curvature="0" /><path
   style="opacity:1;fill:#43aa26;fill-opacity:1;stroke:#ffffff;stroke-width:0;stroke-miterlimit:4;stroke-dasharray:none;stroke-opacity:1"
   d="m 77.004488,288.56786 c -9.81747,-9.82521 -17.131197,-17.23048 -17.046161,-17.25954 0.117247,-0.0401 0.110137,-0.1101 -0.03341,-0.32919 -0.100294,-0.15306 -0.15138,-0.32842 -0.113524,-0.38967 0.106628,-0.17253 69.620677,-0.15108 69.620677,0.0215 0,0.0731 -0.21637,0.42117 -0.48082,0.77358 -0.57913,0.77177 -12.48265,12.69864 -19.5751,19.6135 -2.80496,2.73473 -7.32807,7.17864 -10.051341,9.87536 -2.723278,2.69672 -4.990519,4.90312 -5.038316,4.90312 -0.0478,0 -7.824696,-7.74389 -17.282001,-17.20864 z"
   id="path5243"
   inkscape:connector-curvature="0" /><path
   style="opacity:1;fill:#43aa26;fill-opacity:1;stroke:#ffffff;stroke-width:0;stroke-miterlimit:4;stroke-dasharray:none;stroke-opacity:1"
   d="M 77.028609,288.59632 C 64.521475,276.07522 59.885339,271.36509 59.9366,271.2315 c 0.03869,-0.10081 0.0086,-0.25774 -0.06695,-0.34873 -0.07551,-0.091 -0.104024,-0.21926 -0.06336,-0.28505 0.111302,-0.18009 69.62578,-0.1669 69.62578,0.0132 0,0.0731 -0.21062,0.4118 -0.46805,0.75276 -0.62232,0.82425 -7.51316,7.77933 -14.60254,14.73865 -3.15165,3.09382 -8.05446,7.92233 -10.89514,10.73001 -8.531482,8.43236 -9.055996,8.94412 -9.167823,8.94481 -0.05916,3.4e-4 -7.830612,-7.73102 -17.269904,-17.18085 z"
   id="path5245"
   inkscape:connector-curvature="0" /><path
   style="opacity:1;fill:#43aa26;fill-opacity:1;stroke:#ffffff;stroke-width:0;stroke-miterlimit:4;stroke-dasharray:none;stroke-opacity:1"
   d="M 77.01726,288.5852 C 64.428298,275.98143 59.862475,271.34202 59.914407,271.20668 c 0.03896,-0.10154 0.01394,-0.25318 -0.0556,-0.33697 -0.06955,-0.0838 -0.09318,-0.2062 -0.05252,-0.27199 0.111302,-0.18009 69.625783,-0.1669 69.625783,0.0132 0,0.0731 -0.20903,0.40969 -0.46451,0.74807 -0.62318,0.8254 -7.14755,7.4128 -14.72069,14.8629 -3.40377,3.34848 -9.25147,9.1181 -12.99489,12.82137 -3.743414,3.70327 -6.863541,6.73381 -6.933614,6.73453 -0.07008,6.8e-4 -7.855571,-7.73596 -17.301105,-17.19261 z"
   id="path5247"
   inkscape:connector-curvature="0" /><path
   style="opacity:1;fill:#43aa26;fill-opacity:1;stroke:#ffffff;stroke-width:0;stroke-miterlimit:4;stroke-dasharray:none;stroke-opacity:1"
   d=""
   id="path5249"
   inkscape:connector-curvature="0" /><path
   style="opacity:1;fill:#43aa26;fill-opacity:1;stroke:#ffffff;stroke-width:0;stroke-miterlimit:4;stroke-dasharray:none;stroke-opacity:1"
   d=""
   id="path5251"
   inkscape:connector-curvature="0" /><path
   style="opacity:1;fill:#43aa26;fill-opacity:1;stroke:#ffffff;stroke-width:0;stroke-miterlimit:4;stroke-dasharray:none;stroke-opacity:1"
   d=""
   id="path5253"
   inkscape:connector-curvature="0" /><path
   style="opacity:1;fill:#43aa26;fill-opacity:1;stroke:#ffffff;stroke-width:0;stroke-miterlimit:4;stroke-dasharray:none;stroke-opacity:1"
   d="M 77.618073,54.616489 58.708276,35.706626 64.653389,29.761514 c 3.269812,-3.269813 5.945113,-5.915379 5.945113,-5.879037 0,0.03634 -2.583193,2.661878 -5.740431,5.834525 l -5.74043,5.768449 4.408426,4.422609 c 7.412496,7.436343 10.522742,10.583494 15.413179,15.59607 4.025063,4.125587 7.890341,8.065197 16.033268,16.341593 0.909438,0.924345 1.631437,1.680627 1.60444,1.680627 -0.027,0 -8.558493,-8.509437 -18.958881,-18.909861 z"
   id="path5255"
   inkscape:connector-curvature="0" /></svg>