<?xml version="1.0" encoding="utf-8"?>
<!-- Generator: Adobe Illustrator 21.1.0, SVG Export Plug-In . SVG Version: 6.00 Build 0)  -->
<svg version="1.1"
	 id="Capa_1" inkscape:version="0.92.1 r15371" sodipodi:docname="window.svg" xmlns:cc="http://creativecommons.org/ns#" xmlns:dc="http://purl.org/dc/elements/1.1/" xmlns:inkscape="http://www.inkscape.org/namespaces/inkscape" xmlns:rdf="http://www.w3.org/1999/02/22-rdf-syntax-ns#" xmlns:sodipodi="http://sodipodi.sourceforge.net/DTD/sodipodi-0.dtd" xmlns:svg="http://www.w3.org/2000/svg"
	 xmlns="http://www.w3.org/2000/svg" xmlns:xlink="http://www.w3.org/1999/xlink" x="0px" y="0px" viewBox="0 0 535.5 535.5"
	 style="enable-background:new 0 0 535.5 535.5;" xml:space="preserve">
<style type="text/css">
	.st0{fill:url(#rect2_1_);}
	.st1{fill:url(#path4_1_);}
	.st2{fill:url(#path6_1_);}
</style>
<sodipodi:namedview  bordercolor="#666666" borderopacity="1" gridtolerance="10" guidetolerance="10" id="namedview43" inkscape:current-layer="Capa_1" inkscape:cx="267.75" inkscape:cy="267.75" inkscape:pageopacity="0" inkscape:pageshadow="2" inkscape:window-height="480" inkscape:window-maximized="0" inkscape:window-width="743" inkscape:window-x="0" inkscape:window-y="0" inkscape:zoom="0.44070962" objecttolerance="10" pagecolor="#ffffff" showgrid="false">
	</sodipodi:namedview>
<g id="g10">
	<g id="g8">
		<linearGradient id="rect2_1_" gradientUnits="userSpaceOnUse" x1="179.5495" y1="405.7316" x2="342.5495" y2="150.7316">
			<stop  offset="0" style="stop-color:#56AF33"/>
			<stop  offset="1" style="stop-color:#8EBC59"/>
		</linearGradient>
		<rect id="rect2" x="162.6" y="95.6" class="st0" width="210.4" height="344.3"/>
		<linearGradient id="path4_1_" gradientUnits="userSpaceOnUse" x1="446.1835" y1="322.9328" x2="538.1835" y2="216.9328">
			<stop  offset="0" style="stop-color:#56AF33"/>
			<stop  offset="1" style="stop-color:#8EBC59"/>
		</linearGradient>
		<path id="path4" class="st1" d="M382.5,449.4v5.5l153,69.8v-514l-153,80.8V449.4z M449.4,88.7l57.4-24.9v127.7l-57.4,11V88.7z
			 M449.4,213.9l57.4-9.7v127.7l-57.4-4.2V213.9z M449.4,339.1l57.4,5.6v127.7L449.4,453V339.1z M401.6,113.7l38.3-19v110.3
			l-38.3,8.6V113.7z M401.6,223.6l38.3-7.5v110.3l-38.3-2.9V223.6z M401.6,333.6l38.3,3.9v110.3l-38.3-14.3V333.6z"/>
		<linearGradient id="path6_1_" gradientUnits="userSpaceOnUse" x1="0" y1="267.75" x2="153" y2="267.75">
			<stop  offset="0" style="stop-color:#44AA26"/>
			<stop  offset="1" style="stop-color:#78B74A"/>
		</linearGradient>
		<path id="path6" class="st2" d="M0,524.7L153,455v-5.5V95.6v-4L0,10.8V524.7z M95.6,94.7l38.3,19v99.9l-38.3-8.6V94.7z
			 M95.6,216.1l38.3,7.5v99.9l-38.3,2.9V216.1z M95.6,337.5l38.3-3.9v99.9l-38.3,14.3V337.5z M28.7,63.8l57.4,24.9v113.9l-57.4-11
			V63.8z M28.7,204.2l57.4,9.7v113.9l-57.4,4.2C28.7,331.9,28.7,204.2,28.7,204.2z M28.7,344.7l57.4-5.6V453l-57.4,19.4
			C28.7,472.4,28.7,344.7,28.7,344.7z"/>
	</g>
</g>
<g id="g12">
</g>
<g id="g14">
</g>
<g id="g16">
</g>
<g id="g18">
</g>
<g id="g20">
</g>
<g id="g22">
</g>
<g id="g24">
</g>
<g id="g26">
</g>
<g id="g28">
</g>
<g id="g30">
</g>
<g id="g32">
</g>
<g id="g34">
</g>
<g id="g36">
</g>
<g id="g38">
</g>
<g id="g40">
</g>
</svg>
